<svg width="2490" height="604" viewBox="0 0 2490 604" fill="none" xmlns="http://www.w3.org/2000/svg">
<path d="M2461.57 206.525H2450.74V206.525C2448.5 206.525 2446.68 208.343 2446.68 210.586V454.864C2446.68 457.948 2444.18 460.448 2441.09 460.448V460.448C2438.01 460.448 2435.51 457.948 2435.51 454.864V298.796C2435.51 293.273 2431.03 288.796 2425.51 288.796H2415.05C2409.53 288.796 2405.05 293.273 2405.05 298.796V308.59C2405.05 314.113 2400.57 318.59 2395.05 318.59H2329.07C2324.86 318.59 2321.45 322 2321.45 326.207V330.441C2321.45 332.31 2319.94 333.825 2318.07 333.825V333.825C2316.2 333.825 2314.68 335.34 2314.68 337.21V391.553C2314.68 396.133 2310.97 399.845 2306.39 399.845V399.845C2301.81 399.845 2298.1 403.558 2298.1 408.137V444.354C2298.1 449.877 2293.62 454.354 2288.1 454.354H2287.11C2281.59 454.354 2277.11 458.831 2277.11 464.354V517.329C2277.11 519.385 2275.45 521.052 2273.39 521.052V521.052C2271.33 521.052 2269.67 519.385 2269.67 517.329V210.248C2269.67 208.566 2268.3 207.202 2266.62 207.202V207.202C2264.94 207.202 2263.57 205.838 2263.57 204.156V177.237C2263.57 174.34 2261.23 171.991 2258.33 171.991V171.991C2255.43 171.991 2253.08 169.642 2253.08 166.745V140.673C2253.08 138.71 2251.49 137.119 2249.53 137.119V137.119C2247.57 137.119 2245.98 135.528 2245.98 133.565V112.247C2245.98 106.724 2241.5 102.247 2235.98 102.247H2210.62C2205.1 102.247 2200.62 106.724 2200.62 112.247V133.565C2200.62 135.528 2199.03 137.119 2197.07 137.119V137.119C2195.11 137.119 2193.51 138.71 2193.51 140.673V166.745C2193.51 169.642 2191.17 171.991 2188.27 171.991V171.991C2185.37 171.991 2183.02 174.34 2183.02 177.237V204.325C2183.02 205.727 2181.89 206.863 2180.48 206.863V206.863C2179.08 206.863 2177.95 208 2177.95 209.402V418.638C2177.95 421.909 2175.29 424.561 2172.02 424.561V424.561C2168.75 424.561 2166.1 427.212 2166.1 430.484V513.775C2166.1 517.794 2162.84 521.052 2158.82 521.052H2152.22C2151.85 521.052 2151.55 520.748 2151.55 520.374V520.374C2151.55 520 2151.24 519.697 2150.87 519.697H2148.67C2148.02 519.697 2147.49 519.167 2147.49 518.512V518.512C2147.49 517.858 2148.02 517.327 2148.67 517.327H2149.85C2150.79 517.327 2151.55 516.569 2151.55 515.635V515.635C2151.55 514.7 2150.79 513.942 2149.85 513.942H2148.84C2148.09 513.942 2147.49 513.335 2147.49 512.587V512.587C2147.49 511.84 2148.09 511.233 2148.84 511.233H2149.85C2150.79 511.233 2151.55 510.475 2151.55 509.54V509.54C2151.55 508.605 2150.79 507.848 2149.85 507.848H2148.67C2148.02 507.848 2147.49 507.317 2147.49 506.663V506.663C2147.49 506.008 2148.02 505.478 2148.67 505.478H2149.85C2150.79 505.478 2151.55 504.72 2151.55 503.785V503.785C2151.55 502.85 2150.79 502.092 2149.85 502.092H2148.67C2148.02 502.092 2147.49 501.561 2147.49 500.907V500.907C2147.49 500.253 2148.02 499.722 2148.67 499.722H2149.85C2150.79 499.722 2151.55 498.964 2151.55 498.029V498.029C2151.55 497.094 2150.79 496.336 2149.85 496.336H2148.67C2148.02 496.336 2147.49 495.806 2147.49 495.151V495.151C2147.49 494.497 2148.02 493.966 2148.67 493.966H2149.85C2150.79 493.966 2151.55 493.208 2151.55 492.274V492.274C2151.55 491.339 2150.79 490.581 2149.85 490.581H2148.67C2148.02 490.581 2147.49 490.05 2147.49 489.396V489.396C2147.49 488.741 2148.02 488.211 2148.67 488.211H2149.85C2150.79 488.211 2151.55 487.453 2151.55 486.518V486.518C2151.55 485.583 2150.79 484.825 2149.85 484.825H2148.67C2148.02 484.825 2147.49 484.295 2147.49 483.64V483.64C2147.49 482.986 2148.02 482.455 2148.67 482.455H2149.85C2150.79 482.455 2151.55 481.697 2151.55 480.762V480.762C2151.55 479.827 2150.79 479.07 2149.85 479.07H2148.67C2148.02 479.07 2147.49 478.539 2147.49 477.885V477.885C2147.49 477.23 2148.02 476.7 2148.67 476.7H2149.85C2150.79 476.7 2151.55 475.942 2151.55 475.007V475.007C2151.55 474.072 2150.79 473.314 2149.85 473.314H2148.67C2148.02 473.314 2147.49 472.783 2147.49 472.129V472.129C2147.49 471.475 2148.02 470.944 2148.67 470.944H2149.85C2150.79 470.944 2151.55 470.186 2151.55 469.251V469.251C2151.55 468.316 2150.79 467.558 2149.85 467.558H2148.67C2148.02 467.558 2147.49 467.028 2147.49 466.373V466.373C2147.49 465.719 2148.02 465.188 2148.67 465.188H2149.85C2150.79 465.188 2151.55 464.43 2151.55 463.496V463.496C2151.55 462.561 2150.79 461.803 2149.85 461.803H2149.52C2148.39 461.803 2147.49 460.894 2147.49 459.772V459.094C2147.49 457.972 2148.39 457.063 2149.52 457.063H2149.85C2150.79 457.063 2151.55 456.305 2151.55 455.37V455.37C2151.55 454.435 2150.79 453.677 2149.85 453.677H2148.67C2148.02 453.677 2147.49 453.147 2147.49 452.492V452.492C2147.49 451.838 2148.02 451.307 2148.67 451.307H2149.85C2150.79 451.307 2151.55 450.549 2151.55 449.614V449.614C2151.55 448.679 2150.79 447.922 2149.85 447.922H2148.67C2148.02 447.922 2147.49 447.391 2147.49 446.737V446.737C2147.49 446.082 2148.02 445.552 2148.67 445.552H2149.85C2150.79 445.552 2151.55 444.794 2151.55 443.859V443.859C2151.55 442.924 2150.79 442.166 2149.85 442.166H2148.67C2148.02 442.166 2147.49 441.635 2147.49 440.981V440.981C2147.49 440.327 2148.02 439.796 2148.67 439.796H2149.85C2150.79 439.796 2151.55 439.038 2151.55 438.103V438.103C2151.55 437.168 2150.79 436.41 2149.85 436.41H2148.67C2148.02 436.41 2147.49 435.88 2147.49 435.225V435.225C2147.49 434.571 2148.02 434.04 2148.67 434.04H2149.85C2150.79 434.04 2151.55 433.282 2151.55 432.348V432.348C2151.55 431.413 2150.79 430.655 2149.85 430.655H2148.67C2148.02 430.655 2147.49 430.124 2147.49 429.47V429.47C2147.49 428.815 2148.02 428.285 2148.67 428.285H2149.85C2150.79 428.285 2151.55 427.527 2151.55 426.592V426.592C2151.55 425.657 2150.79 424.899 2149.85 424.899H2148.67C2148.02 424.899 2147.49 424.369 2147.49 423.714V423.714C2147.49 423.06 2148.02 422.529 2148.67 422.529H2149.85C2150.79 422.529 2151.55 421.771 2151.55 420.836V420.836C2151.55 419.901 2150.79 419.144 2149.85 419.144H2148.67C2148.02 419.144 2147.49 418.613 2147.49 417.959V417.959C2147.49 417.304 2148.02 416.774 2148.67 416.774H2149.85C2150.79 416.774 2151.55 416.016 2151.55 415.081V415.081C2151.55 414.146 2150.79 413.388 2149.85 413.388H2148.67C2148.02 413.388 2147.49 412.857 2147.49 412.203V412.203C2147.49 411.549 2148.02 411.018 2148.67 411.018H2149.85C2150.79 411.018 2151.55 410.26 2151.55 409.325V409.325C2151.55 408.39 2150.79 407.632 2149.85 407.632H2148.67C2148.02 407.632 2147.49 407.102 2147.49 406.447V406.447C2147.49 405.793 2148.02 405.262 2148.67 405.262H2149.85C2150.79 405.262 2151.55 404.504 2151.55 403.57V403.57C2151.55 402.635 2150.79 401.877 2149.85 401.877H2148.67C2148.02 401.877 2147.49 401.346 2147.49 400.692V400.692C2147.49 400.037 2148.02 399.507 2148.67 399.507H2149.85C2150.79 399.507 2151.55 398.749 2151.55 397.814V397.814C2151.55 396.879 2150.79 396.121 2149.85 396.121H2148.67C2148.02 396.121 2147.49 395.591 2147.49 394.936V394.936C2147.49 394.282 2148.02 393.751 2148.67 393.751H2149.85C2150.79 393.751 2151.55 392.993 2151.55 392.058V392.058C2151.55 391.123 2150.79 390.366 2149.85 390.366H2148.67C2148.02 390.366 2147.49 389.835 2147.49 389.181V389.181C2147.49 388.526 2148.02 387.996 2148.67 387.996H2149.85C2150.79 387.996 2151.55 387.238 2151.55 386.303V386.303C2151.55 385.368 2150.79 384.61 2149.85 384.61H2149.52C2148.39 384.61 2147.49 383.701 2147.49 382.579V381.224C2147.49 380.102 2148.39 379.193 2149.52 379.193H2149.85C2150.79 379.193 2151.55 378.435 2151.55 377.5V377.5C2151.55 376.565 2150.79 375.807 2149.85 375.807H2148.67C2148.02 375.807 2147.49 375.277 2147.49 374.622V374.622C2147.49 373.968 2148.02 373.437 2148.67 373.437H2149.85C2150.79 373.437 2151.55 372.679 2151.55 371.744V371.744C2151.55 370.81 2150.79 370.052 2149.85 370.052H2148.67C2148.02 370.052 2147.49 369.521 2147.49 368.867V368.867C2147.49 368.212 2148.02 367.682 2148.67 367.682H2149.85C2150.79 367.682 2151.55 366.924 2151.55 365.989V365.989C2151.55 365.054 2150.79 364.296 2149.85 364.296H2148.67C2148.02 364.296 2147.49 363.765 2147.49 363.111V363.111C2147.49 362.457 2148.02 361.926 2148.67 361.926H2149.85C2150.79 361.926 2151.55 361.168 2151.55 360.233V360.233C2151.55 359.298 2150.79 358.54 2149.85 358.54H2149.52C2148.39 358.54 2147.49 357.631 2147.49 356.51V354.308C2147.49 353.467 2146.8 352.785 2145.96 352.785V352.785C2145.12 352.785 2144.44 352.103 2144.44 351.262V349.061C2144.44 347.004 2142.77 345.336 2140.71 345.336H2140.38C2138.13 345.336 2136.32 343.518 2136.32 341.275V330.438C2136.32 328.756 2134.95 327.392 2133.27 327.392V327.392C2131.59 327.392 2130.22 326.029 2130.22 324.346V312.761C2130.22 308.06 2126.95 303.994 2122.36 302.991L2111.61 300.646V300.646C2109.03 300.051 2107.21 297.758 2107.21 295.114V263.572C2107.21 262.918 2106.68 262.388 2106.02 262.388V262.388C2105.37 262.388 2104.84 262.918 2104.84 263.572V295.473C2104.84 297.429 2103.02 298.879 2101.12 298.445V298.445C2099.21 298.012 2097.39 299.461 2097.39 301.417V324.854C2097.39 326.256 2096.26 327.392 2094.86 327.392V327.392C2093.45 327.392 2092.32 328.529 2092.32 329.931V341.275C2092.32 343.518 2090.5 345.336 2088.26 345.336H2087.41C2085.63 345.336 2084.19 346.776 2084.19 348.553V350.246C2084.19 351.087 2083.51 351.769 2082.67 351.769V351.769C2081.83 351.769 2081.15 352.451 2081.15 353.292V354.647C2081.15 356.236 2079.86 357.525 2078.27 357.525H2048.5C2042.98 357.525 2038.5 362.002 2038.5 367.525V385.105C2038.5 390.628 2034.03 395.105 2028.5 395.105H2003.83C2002.59 395.105 2001.36 395.337 2000.2 395.788L1969.8 407.632V407.632C1968.78 408.041 1968.11 409.031 1968.11 410.132V421.853C1968.11 423.348 1969.32 424.561 1970.81 424.561H1971.49C1972.61 424.561 1973.52 425.47 1973.52 426.592V426.592C1973.52 427.714 1972.61 428.623 1971.49 428.623H1970.14C1969.01 428.623 1968.11 429.533 1968.11 430.655V430.655C1968.11 431.777 1969.01 432.686 1970.14 432.686H1971.49C1972.61 432.686 1973.52 433.596 1973.52 434.718V434.718C1973.52 435.839 1972.61 436.749 1971.49 436.749H1970.14C1969.01 436.749 1968.11 437.658 1968.11 438.78V438.78C1968.11 439.902 1969.01 440.812 1970.14 440.812H1971.49C1972.61 440.812 1973.52 441.721 1973.52 442.843V442.843C1973.52 443.965 1972.61 444.874 1971.49 444.874H1970.14C1969.01 444.874 1968.11 445.784 1968.11 446.906V446.906C1968.11 448.028 1969.01 448.937 1970.14 448.937H1971.49C1972.61 448.937 1973.52 449.847 1973.52 450.969V450.969C1973.52 452.091 1972.61 453 1971.49 453H1970.14C1969.01 453 1968.11 453.91 1968.11 455.031V455.031C1968.11 456.153 1969.01 457.063 1970.14 457.063H1972C1972.84 457.063 1973.52 457.745 1973.52 458.586V458.586C1973.52 459.428 1972.84 460.11 1972 460.11H1941.22C1937.04 460.11 1933.3 457.507 1931.84 453.585L1923.79 431.855C1922.39 428.076 1917.04 428.082 1915.65 431.865V431.865C1913.95 436.477 1906.83 435.154 1906.84 430.24C1906.85 426.879 1906.85 423.519 1906.85 420.159C1906.85 415.419 1906.85 410.679 1906.85 405.939C1906.85 392.397 1906.85 378.854 1906.51 365.312C1906.51 359.556 1906.17 353.462 1906.17 347.706C1905.83 335.179 1905.49 322.652 1904.81 309.787C1904.48 303.693 1904.48 297.599 1904.14 291.504C1903.46 279.655 1903.12 268.144 1902.45 256.294C1902.45 254.939 1902.11 253.585 1902.11 252.231C1901.43 241.735 1900.75 231.578 1900.08 221.083C1898.72 202.123 1897.03 183.164 1895.34 164.204C1895.21 162.475 1895.05 160.701 1894.87 158.915C1894.34 153.695 1889.92 149.646 1884.67 149.646H1821.25C1816.4 149.646 1812.08 153.256 1812.08 158.11V158.11C1811.74 162.173 1811.4 166.235 1811.06 170.298C1810.72 173.684 1810.39 177.408 1810.05 180.794C1809.37 187.226 1809.03 193.659 1808.36 200.092C1808.02 203.139 1808.02 205.848 1807.68 208.895C1807.34 214.312 1807 219.729 1806.32 225.146C1805.99 227.516 1805.99 229.886 1805.99 231.917C1805.65 239.027 1804.97 246.137 1804.63 252.908C1804.63 255.278 1804.29 257.648 1804.29 260.018C1803.96 267.466 1803.62 274.576 1803.28 282.025C1803.28 283.718 1802.94 285.072 1802.94 286.765C1802.6 293.536 1802.26 300.646 1801.92 307.417C1801.92 308.771 1801.92 310.126 1801.92 311.48C1801.59 319.267 1801.25 327.054 1801.25 334.841C1801.25 336.534 1801.25 337.888 1801.25 339.581C1800.91 347.706 1800.91 355.832 1800.57 363.619V364.635C1800.57 372.76 1800.23 380.886 1800.23 388.673C1800.23 389.688 1800.23 390.704 1800.23 391.72C1800.23 399.845 1800.23 407.971 1800.23 416.096C1800.23 417.112 1800.23 418.466 1800.23 419.482C1800.23 421.894 1800.23 424.307 1800.23 426.763C1800.23 430.782 1796.97 434.04 1792.96 434.04V434.04C1788.94 434.04 1785.68 437.298 1785.68 441.317V522.578C1785.68 527.345 1781.81 531.208 1777.05 531.208H1769.26C1768.8 531.208 1768.42 530.83 1768.42 530.362V530.362C1768.42 529.895 1768.8 529.516 1769.26 529.516H1769.94C1770.78 529.516 1771.46 528.834 1771.46 527.993V527.315C1771.46 526.473 1770.78 525.792 1769.94 525.792V525.792C1769.1 525.792 1768.42 525.11 1768.42 524.268V522.913C1768.42 522.072 1769.1 521.39 1769.94 521.39V521.39C1770.78 521.39 1771.46 520.708 1771.46 519.867V519.189C1771.46 518.348 1770.78 517.666 1769.94 517.666V517.666C1769.1 517.666 1768.42 516.984 1768.42 516.143V514.449C1768.42 513.608 1769.1 512.926 1769.94 512.926V512.926C1770.78 512.926 1771.46 512.244 1771.46 511.403V510.725C1771.46 509.884 1770.78 509.202 1769.94 509.202V509.202C1769.1 509.202 1768.42 508.52 1768.42 507.679V505.985C1768.42 505.144 1769.1 504.462 1769.94 504.462V504.462C1770.78 504.462 1771.46 503.78 1771.46 502.939V502.261C1771.46 501.42 1770.78 500.738 1769.94 500.738V500.738C1769.1 500.738 1768.42 500.056 1768.42 499.215V497.521C1768.42 496.68 1769.1 495.998 1769.94 495.998V495.998C1770.78 495.998 1771.46 495.316 1771.46 494.475V493.797C1771.46 492.955 1770.78 492.274 1769.94 492.274V492.274C1769.1 492.274 1768.42 491.592 1768.42 490.75V489.057C1768.42 488.216 1769.1 487.534 1769.94 487.534V487.534C1770.78 487.534 1771.46 486.852 1771.46 486.011V485.332C1771.46 484.491 1770.78 483.809 1769.94 483.809V483.809C1769.1 483.809 1768.42 483.128 1768.42 482.286V480.593C1768.42 479.751 1769.1 479.07 1769.94 479.07V479.07C1770.78 479.07 1771.46 478.388 1771.46 477.546V476.868C1771.46 476.027 1770.78 475.345 1769.94 475.345V475.345C1769.1 475.345 1768.42 474.663 1768.42 473.822V472.128C1768.42 471.287 1769.1 470.605 1769.94 470.605V470.605C1770.78 470.605 1771.46 469.924 1771.46 469.082V468.404C1771.46 467.563 1770.78 466.881 1769.94 466.881V466.881C1769.1 466.881 1768.42 466.199 1768.42 465.358V463.664C1768.42 462.823 1769.1 462.141 1769.94 462.141V462.141C1770.78 462.141 1771.46 461.459 1771.46 460.618V459.94C1771.46 459.099 1770.78 458.417 1769.94 458.417V458.417C1769.1 458.417 1768.42 457.735 1768.42 456.894V455.2C1768.42 454.359 1769.1 453.677 1769.94 453.677V453.677C1770.78 453.677 1771.46 452.995 1771.46 452.154V451.476C1771.46 450.635 1770.78 449.953 1769.94 449.953V449.953C1769.1 449.953 1768.42 449.271 1768.42 448.43V446.736C1768.42 445.895 1769.1 445.213 1769.94 445.213V445.213C1770.78 445.213 1771.46 444.531 1771.46 443.69V441.658C1771.46 440.816 1770.78 440.135 1769.94 440.135V440.135C1769.1 440.135 1768.42 439.453 1768.42 438.611V436.918C1768.42 436.077 1769.1 435.395 1769.94 435.395V435.395C1770.78 435.395 1771.46 434.713 1771.46 433.872V433.194C1771.46 432.352 1770.78 431.67 1769.94 431.67V431.67C1769.1 431.67 1768.42 430.989 1768.42 430.147V428.115C1768.42 427.274 1769.1 426.592 1769.94 426.592V426.592C1770.78 426.592 1771.46 425.91 1771.46 425.069V424.391C1771.46 423.55 1770.78 422.868 1769.94 422.868V422.868C1769.1 422.868 1768.42 422.186 1768.42 421.345V419.651C1768.42 418.81 1769.1 418.128 1769.94 418.128V418.128C1770.78 418.128 1771.46 417.446 1771.46 416.605V415.927C1771.46 415.086 1770.78 414.404 1769.94 414.404V414.404C1769.1 414.404 1768.42 413.722 1768.42 412.881V411.187C1768.42 410.346 1769.1 409.664 1769.94 409.664V409.664C1770.78 409.664 1771.46 408.982 1771.46 408.141V407.463C1771.46 406.621 1770.78 405.939 1769.94 405.939V405.939C1769.1 405.939 1768.42 405.258 1768.42 404.416V402.723C1768.42 401.881 1769.1 401.2 1769.94 401.2V401.2C1770.78 401.2 1771.46 400.518 1771.46 399.677V398.998C1771.46 398.157 1770.78 397.475 1769.94 397.475V397.475C1769.1 397.475 1768.42 396.793 1768.42 395.952V394.259C1768.42 393.417 1769.1 392.735 1769.94 392.735V392.735C1770.78 392.735 1771.46 392.054 1771.46 391.212V390.534C1771.46 389.693 1770.78 389.011 1769.94 389.011V389.011C1769.1 389.011 1768.42 388.329 1768.42 387.488V385.794C1768.42 384.953 1769.1 384.271 1769.94 384.271V384.271C1770.78 384.271 1771.46 383.589 1771.46 382.748V382.07C1771.46 381.229 1770.78 380.547 1769.94 380.547V380.547C1769.1 380.547 1768.42 379.865 1768.42 379.024V377.33C1768.42 376.489 1769.1 375.807 1769.94 375.807V375.807C1770.78 375.807 1771.46 375.125 1771.46 374.284V373.606C1771.46 372.765 1770.78 372.083 1769.94 372.083V372.083C1769.1 372.083 1768.42 371.401 1768.42 370.56V368.866C1768.42 368.025 1769.1 367.343 1769.94 367.343V367.343C1770.78 367.343 1771.46 366.661 1771.46 365.82V363.788C1771.46 362.946 1770.78 362.265 1769.94 362.265V362.265C1769.1 362.265 1768.42 361.583 1768.42 360.742V359.048C1768.42 358.207 1769.1 357.525 1769.94 357.525V357.525C1770.78 357.525 1771.46 356.843 1771.46 356.002V355.324C1771.46 354.482 1770.78 353.8 1769.94 353.8V353.8C1769.1 353.8 1768.42 353.119 1768.42 352.277V350.584C1768.42 349.742 1769.1 349.061 1769.94 349.061V349.061C1770.78 349.061 1771.46 348.379 1771.46 347.537V346.859C1771.46 346.018 1770.78 345.336 1769.94 345.336V345.336C1769.1 345.336 1768.42 344.654 1768.42 343.813V342.12C1768.42 341.278 1769.1 340.596 1769.94 340.596V340.596C1770.78 340.596 1771.46 339.915 1771.46 339.073V338.395C1771.46 337.554 1770.78 336.872 1769.94 336.872V336.872C1769.1 336.872 1768.42 336.19 1768.42 335.349V329.931C1768.42 329.09 1769.1 328.408 1769.94 328.408V328.408C1770.78 328.408 1771.46 327.726 1771.46 326.885V325.869C1771.46 324.466 1770.33 323.33 1768.92 323.33H1764.02C1762.71 323.33 1761.65 322.269 1761.65 320.96V320.402C1761.65 319.401 1762.46 318.59 1763.46 318.59V318.59C1764.95 318.59 1765.8 316.893 1764.92 315.697L1752.78 299.337C1751.33 297.392 1749.05 296.244 1746.63 296.244H1746.42C1742.31 296.244 1738.97 292.91 1738.97 288.796V288.796V288.796C1738.97 288.048 1738.3 287.174 1738.3 286.426V266.958C1738.3 266.304 1737.77 265.774 1737.11 265.774V265.774C1736.46 265.774 1735.93 266.304 1735.93 266.958V286.479C1735.93 287.198 1735.25 288.077 1735.25 288.796V288.796V288.796C1735.25 292.91 1731.91 296.244 1727.8 296.244H1727.59C1725.17 296.244 1722.89 297.392 1721.45 299.338L1708.63 316.601C1708.02 317.423 1708.61 318.59 1709.63 318.59V318.59C1710.32 318.59 1710.88 319.148 1710.88 319.836V320.96C1710.88 322.269 1709.82 323.33 1708.51 323.33H1703.6C1702.2 323.33 1701.07 324.466 1701.07 325.869V326.547C1701.07 327.575 1701.9 328.408 1702.93 328.408V328.408C1703.96 328.408 1704.79 329.242 1704.79 330.27V335.011C1704.79 336.039 1703.96 336.872 1702.93 336.872V336.872C1701.9 336.872 1701.07 337.706 1701.07 338.734V338.734C1701.07 339.762 1701.9 340.596 1702.93 340.596V340.596C1703.96 340.596 1704.79 341.43 1704.79 342.458V343.475C1704.79 344.503 1703.96 345.336 1702.93 345.336V345.336C1701.9 345.336 1701.07 346.17 1701.07 347.198V347.198C1701.07 348.227 1701.9 349.061 1702.93 349.061V349.061C1703.96 349.061 1704.79 349.894 1704.79 350.922V351.939C1704.79 352.967 1703.96 353.8 1702.93 353.8V353.8C1701.9 353.8 1701.07 354.634 1701.07 355.663V355.663C1701.07 356.691 1701.9 357.525 1702.93 357.525V357.525C1703.96 357.525 1704.79 358.358 1704.79 359.386V360.403C1704.79 361.431 1703.96 362.265 1702.93 362.265V362.265C1701.9 362.265 1701.07 363.099 1701.07 364.127V364.127C1701.07 365.155 1701.9 365.989 1702.93 365.989V365.989C1703.96 365.989 1704.79 366.822 1704.79 367.85V368.867C1704.79 369.895 1703.96 370.729 1702.93 370.729V370.729C1701.9 370.729 1701.07 371.563 1701.07 372.591V372.591C1701.07 373.619 1701.9 374.453 1702.93 374.453V374.453C1703.96 374.453 1704.79 375.286 1704.79 376.314V377.331C1704.79 378.359 1703.96 379.193 1702.93 379.193V379.193C1701.9 379.193 1701.07 380.027 1701.07 381.055V381.055C1701.07 382.083 1701.9 382.917 1702.93 382.917V382.917C1703.96 382.917 1704.79 383.75 1704.79 384.779V385.795C1704.79 386.824 1703.96 387.657 1702.93 387.657V387.657C1701.9 387.657 1701.07 388.491 1701.07 389.519V389.519C1701.07 390.547 1701.9 391.381 1702.93 391.381V391.381C1703.96 391.381 1704.79 392.215 1704.79 393.243V394.26C1704.79 395.288 1703.96 396.121 1702.93 396.121V396.121C1701.9 396.121 1701.07 396.955 1701.07 397.983V397.983C1701.07 399.011 1701.9 399.845 1702.93 399.845V399.845C1703.96 399.845 1704.79 400.679 1704.79 401.707V402.724C1704.79 403.752 1703.96 404.585 1702.93 404.585V404.585C1701.9 404.585 1701.07 405.419 1701.07 406.447V406.447C1701.07 407.475 1701.9 408.309 1702.93 408.309V408.309C1703.96 408.309 1704.79 409.143 1704.79 410.171V411.188C1704.79 412.216 1703.96 413.049 1702.93 413.049V413.049C1701.9 413.049 1701.07 413.883 1701.07 414.911V414.911C1701.07 415.94 1701.9 416.774 1702.93 416.774V416.774C1703.96 416.774 1704.79 417.607 1704.79 418.635V419.652C1704.79 420.68 1703.96 421.513 1702.93 421.513V421.513C1701.9 421.513 1701.07 422.347 1701.07 423.376V423.376C1701.07 424.404 1701.9 425.238 1702.93 425.238V425.238C1703.96 425.238 1704.79 426.071 1704.79 427.099V428.116C1704.79 429.144 1703.96 429.978 1702.93 429.978V429.978C1701.9 429.978 1701.07 430.812 1701.07 431.84V431.84C1701.07 432.868 1701.9 433.702 1702.93 433.702V433.702C1703.96 433.702 1704.79 434.535 1704.79 435.563V436.58C1704.79 437.608 1703.96 438.442 1702.93 438.442V438.442C1701.9 438.442 1701.07 439.276 1701.07 440.304V440.304C1701.07 441.332 1701.9 442.166 1702.93 442.166V442.166C1703.96 442.166 1704.79 442.999 1704.79 444.027V445.044C1704.79 446.072 1703.96 446.906 1702.93 446.906V446.906C1701.9 446.906 1701.07 447.74 1701.07 448.768V448.768C1701.07 449.796 1701.9 450.63 1702.93 450.63H1704.28C1704.56 450.63 1704.79 450.857 1704.79 451.138V451.138C1704.79 451.418 1704.56 451.646 1704.28 451.646H1686.51C1684.08 451.646 1682.11 449.675 1682.11 447.244V447.244V443.52V438.78V435.056V430.316V426.592V421.852V418.128V413.388V409.664V404.924V401.2V396.46V392.735V387.996V384.271V379.531V375.807V371.067V367.343V362.603V358.879V354.139V350.415V346.013V342.289V337.549V333.825V329.085V325.361V320.621V316.897V312.496V308.771V304.031V300.307V295.567V291.843V287.103V283.379V278.639V274.915V270.175V266.451V261.711V257.987V253.247V249.522V244.783V241.058V236.318V232.594V227.854V224.13V219.39V215.666V210.926L1681.94 203.635C1681.84 199.468 1679.17 195.799 1675.23 194.429L1665.15 190.922C1661.86 189.777 1658.42 192.22 1658.42 195.705V197.251C1658.42 199.194 1656.85 200.769 1654.9 200.769V200.769C1652.93 200.769 1651.35 199.15 1651.39 197.18L1651.83 175.22C1651.92 170.558 1648.78 166.449 1644.26 165.317L1622.87 159.969C1616.86 158.466 1610.94 162.732 1610.47 168.908L1607.31 210.249L1606.98 214.989L1606.64 218.713L1606.3 223.453L1605.96 227.177L1605.62 231.917L1605.28 235.641L1604.94 240.381L1604.61 244.105L1604.27 248.845L1603.93 252.57L1603.59 257.309L1603.25 261.034L1602.91 265.774L1602.58 269.498L1602.24 274.238L1601.9 277.962L1601.56 282.702L1601.22 286.426L1600.88 291.166L1600.55 294.89L1600.21 299.63L1599.87 303.354L1599.85 303.618C1599.65 306.465 1598.24 309.09 1595.97 310.831L1594.23 312.173C1592 313.887 1590.61 316.465 1590.39 319.267V319.267L1590.05 322.991L1589.71 327.731L1589.38 331.455L1589.04 336.195L1588.7 339.919L1588.36 344.659L1588.02 348.383L1587.68 352.785V352.785C1587.68 353.72 1586.93 354.478 1585.99 354.478H1558.08C1552.56 354.478 1548.08 358.955 1548.08 364.478V403.063C1548.08 405.961 1545.74 408.309 1542.84 408.309V408.309C1539.94 408.309 1537.59 410.658 1537.59 413.555V517.668C1537.59 521.594 1534.41 524.776 1530.49 524.776V524.776C1526.56 524.776 1523.38 521.594 1523.38 517.668V101.569C1523.38 100.073 1522.17 98.861 1520.67 98.861V98.861C1519.17 98.861 1517.96 97.6487 1517.96 96.1534V59.0919C1517.96 53.5691 1513.49 49.0919 1507.96 49.0919H1450.46C1444.93 49.0919 1440.46 53.5691 1440.46 59.0919V96.4919C1440.46 97.9873 1439.24 99.1996 1437.75 99.1996V99.1996C1436.25 99.1996 1435.04 100.412 1435.04 101.907V282.196C1435.04 284.906 1432.84 287.103 1430.13 287.103H1426.24C1425.68 287.103 1425.23 287.558 1425.23 288.119V288.458C1425.23 288.832 1424.92 289.135 1424.55 289.135V289.135C1424.18 289.135 1423.87 289.438 1423.87 289.811V293.536C1423.87 293.91 1424.18 294.213 1424.55 294.213V294.213C1424.92 294.213 1425.23 294.516 1425.23 294.89V295.229C1425.23 295.603 1424.92 295.906 1424.55 295.906V295.906C1424.18 295.906 1423.87 296.209 1423.87 296.583V300.307C1423.87 300.681 1424.18 300.984 1424.55 300.984V300.984C1424.92 300.984 1425.23 301.287 1425.23 301.661V302C1425.23 302.374 1424.92 302.677 1424.55 302.677V302.677C1424.18 302.677 1423.87 302.98 1423.87 303.354V307.079C1423.87 307.453 1424.18 307.756 1424.55 307.756V307.756C1424.92 307.756 1425.23 308.059 1425.23 308.432V308.772C1425.23 309.145 1424.92 309.448 1424.55 309.448V309.448C1424.18 309.448 1423.87 309.752 1423.87 310.125V313.85C1423.87 314.224 1424.18 314.527 1424.55 314.527V314.527C1424.92 314.527 1425.23 314.83 1425.23 315.204V315.543C1425.23 315.917 1424.92 316.22 1424.55 316.22V316.22C1424.18 316.22 1423.87 316.523 1423.87 316.897V320.621C1423.87 320.995 1424.18 321.298 1424.55 321.298V321.298C1424.92 321.298 1425.23 321.601 1425.23 321.975V322.314C1425.23 322.688 1424.92 322.991 1424.55 322.991V322.991C1424.18 322.991 1423.87 323.294 1423.87 323.668V327.393C1423.87 327.766 1424.18 328.07 1424.55 328.07V328.07C1424.92 328.07 1425.23 328.373 1425.23 328.746V329.085C1425.23 329.459 1424.92 329.762 1424.55 329.762V329.762C1424.18 329.762 1423.87 330.065 1423.87 330.439V334.164C1423.87 334.538 1424.18 334.841 1424.55 334.841V334.841C1424.92 334.841 1425.23 335.144 1425.23 335.518V335.857C1425.23 336.231 1424.92 336.534 1424.55 336.534V336.534C1424.18 336.534 1423.87 336.837 1423.87 337.211V340.935C1423.87 341.309 1424.18 341.612 1424.55 341.612V341.612C1424.92 341.612 1425.23 341.915 1425.23 342.289V342.628C1425.23 343.002 1424.92 343.305 1424.55 343.305V343.305C1424.18 343.305 1423.87 343.608 1423.87 343.982V347.707C1423.87 348.08 1424.18 348.383 1424.55 348.383V348.383C1424.92 348.383 1425.23 348.686 1425.23 349.06V349.399C1425.23 349.773 1424.92 350.076 1424.55 350.076V350.076C1424.18 350.076 1423.87 350.379 1423.87 350.753V354.478C1423.87 354.852 1424.18 355.155 1424.55 355.155V355.155C1424.92 355.155 1425.23 355.458 1425.23 355.832V356.171C1425.23 356.545 1424.92 356.848 1424.55 356.848V356.848C1424.18 356.848 1423.87 357.151 1423.87 357.524V361.249C1423.87 361.623 1424.18 361.926 1424.55 361.926V361.926C1424.92 361.926 1425.23 362.229 1425.23 362.603V362.942C1425.23 363.316 1424.92 363.619 1424.55 363.619V363.619C1424.18 363.619 1423.87 363.922 1423.87 364.296V368.02C1423.87 368.394 1424.18 368.697 1424.55 368.697V368.697C1424.92 368.697 1425.23 369 1425.23 369.374V369.713C1425.23 370.087 1424.92 370.39 1424.55 370.39V370.39C1424.18 370.39 1423.87 370.693 1423.87 371.067V374.792C1423.87 375.166 1424.18 375.469 1424.55 375.469V375.469C1424.92 375.469 1425.23 375.772 1425.23 376.146V376.485C1425.23 376.858 1424.92 377.161 1424.55 377.161V377.161C1424.18 377.161 1423.87 377.465 1423.87 377.838V381.563C1423.87 381.937 1424.18 382.24 1424.55 382.24V382.24C1424.92 382.24 1425.23 382.543 1425.23 382.917V383.256C1425.23 383.63 1424.92 383.933 1424.55 383.933V383.933C1424.18 383.933 1423.87 384.236 1423.87 384.61V388.334C1423.87 388.708 1424.18 389.011 1424.55 389.011V389.011C1424.92 389.011 1425.23 389.314 1425.23 389.688V396.798C1425.23 397.172 1424.92 397.475 1424.55 397.475V397.475C1424.18 397.475 1423.87 397.778 1423.87 398.152V401.877C1423.87 402.251 1424.18 402.554 1424.55 402.554V402.554C1424.92 402.554 1425.23 402.857 1425.23 403.231V403.57C1425.23 403.944 1424.92 404.247 1424.55 404.247V404.247C1424.18 404.247 1423.87 404.55 1423.87 404.924V405.77C1423.87 406.612 1423.19 407.294 1422.35 407.294H1411.2C1405.67 407.294 1401.2 402.817 1401.2 397.294V305.906C1401.2 300.383 1396.72 295.906 1391.2 295.906H1351.63C1346.11 295.906 1341.63 300.383 1341.63 305.906V359.051C1341.63 363.818 1337.76 367.682 1333 367.682H1326.4C1325.28 367.682 1324.37 366.772 1324.37 365.65V365.65C1324.37 364.528 1323.46 363.619 1322.34 363.619H1320.81C1318.85 363.619 1317.26 362.028 1317.26 360.065V232.933V89.0417C1317.26 87.5463 1316.05 86.3341 1314.55 86.3341V86.3341C1313.06 86.3341 1311.84 85.1218 1311.84 83.6264V10C1311.84 4.47716 1307.37 0 1301.84 0H1228.09C1222.57 0 1218.09 4.47715 1218.09 10V83.6265C1218.09 85.1219 1216.88 86.3341 1215.39 86.3341V86.3341C1213.89 86.3341 1212.68 87.5463 1212.68 89.0417V447.247C1212.68 450.798 1209.8 453.677 1206.25 453.677V453.677C1202.7 453.677 1199.82 450.798 1199.82 447.247V318.771C1199.82 313.248 1195.34 308.771 1189.82 308.771H1187.14C1181.62 308.771 1177.14 304.294 1177.14 298.771V248.167C1177.14 246.111 1175.47 244.444 1173.42 244.444V244.444C1171.36 244.444 1169.69 242.777 1169.69 240.721V225.327C1169.69 219.805 1165.22 215.327 1159.69 215.327H1074.1C1068.57 215.327 1064.1 219.805 1064.1 225.327V240.721C1064.1 242.777 1062.43 244.444 1060.37 244.444V244.444C1058.32 244.444 1056.65 246.111 1056.65 248.167V468.392C1056.65 473.915 1052.17 478.392 1046.65 478.392H1042.28C1036.76 478.392 1032.28 473.915 1032.28 468.392V337.054C1032.28 331.531 1027.81 327.054 1022.28 327.054H952.592C947.069 327.054 942.592 331.531 942.592 337.054V412.714C942.592 418.135 938.198 422.529 932.777 422.529V422.529C927.356 422.529 922.962 426.924 922.962 432.344V509.542C922.962 512.72 920.386 515.296 917.208 515.296V515.296C914.03 515.296 911.454 512.72 911.454 509.542V247.83V243.427C911.454 242.119 910.394 241.058 909.085 241.058H907.732C907.171 241.058 906.716 240.604 906.716 240.043V240.043C906.716 239.482 907.171 239.027 907.732 239.027H909.085C910.394 239.027 911.454 237.966 911.454 236.658V234.625C911.454 233.316 910.394 232.256 909.085 232.256H907.732C907.171 232.256 906.716 231.801 906.716 231.24V231.24C906.716 230.679 907.171 230.224 907.732 230.224H909.085C910.394 230.224 911.454 229.164 911.454 227.855V225.822C911.454 224.514 910.394 223.453 909.085 223.453H907.732C907.171 223.453 906.716 222.998 906.716 222.437V222.437C906.716 221.876 907.171 221.422 907.732 221.422H909.085C910.394 221.422 911.454 220.361 911.454 219.052V217.019C911.454 215.711 910.394 214.65 909.085 214.65H907.393C907.019 214.65 906.716 214.347 906.716 213.973V213.973C906.716 213.599 907.019 213.296 907.393 213.296H909.254C910.656 213.296 911.793 212.159 911.793 210.758V209.063C911.793 207.661 910.656 206.525 909.254 206.525H907.732C907.171 206.525 906.716 206.07 906.716 205.509V205.509C906.716 204.948 907.171 204.493 907.732 204.493H909.254C910.656 204.493 911.793 203.357 911.793 201.955V200.26C911.793 198.858 910.656 197.722 909.254 197.722H907.732C907.171 197.722 906.716 197.267 906.716 196.706V196.706C906.716 196.145 907.171 195.691 907.732 195.691H909.254C910.656 195.691 911.793 194.554 911.793 193.152V191.458C911.793 190.056 910.656 188.919 909.254 188.919H907.732C907.171 188.919 906.716 188.465 906.716 187.904V187.904C906.716 187.343 907.171 186.888 907.732 186.888H909.254C910.656 186.888 911.793 185.751 911.793 184.349V166.407C911.793 163.12 910.142 160.081 907.676 157.908C897.537 148.978 883.32 129.9 883.024 103.601V102.924V102.076C883.024 100.488 881.736 99.1996 880.147 99.1996H879.133C878.104 99.1996 877.271 100.033 877.271 101.062V101.062C877.271 102.09 876.437 102.924 875.409 102.924H873.209C870.966 102.924 869.148 101.105 869.148 98.8623V45.5365C869.148 44.6953 868.466 44.0135 867.625 44.0135V44.0135C866.784 44.0135 866.102 44.6953 866.102 45.5365V102.416C866.102 102.884 865.723 103.262 865.255 103.262V103.262C864.788 103.262 864.409 102.884 864.409 102.416V101.4C864.409 100.372 863.576 99.5381 862.547 99.5381H860.179C859.151 99.5381 858.317 100.372 858.317 101.4V101.4C858.317 102.429 857.484 103.262 856.455 103.262H849.349C848.32 103.262 847.487 102.429 847.487 101.4V101.4C847.487 100.372 846.653 99.5381 845.625 99.5381H844.441C842.758 99.5381 841.395 100.902 841.395 102.584V103.262C841.395 129.941 834.035 149.257 825.469 158.354C823.177 160.788 821.426 163.842 821.426 167.185V180.624C821.426 180.718 821.502 180.794 821.595 180.794V180.794C821.689 180.794 821.764 180.87 821.764 180.963V184.519C821.764 186.201 823.128 187.565 824.81 187.565H826.841C827.402 187.565 827.857 188.02 827.857 188.581V188.581C827.857 189.142 827.402 189.596 826.841 189.596H824.81C823.128 189.596 821.764 190.96 821.764 192.643V193.322C821.764 195.004 823.128 196.368 824.81 196.368H826.841C827.402 196.368 827.857 196.822 827.857 197.383V197.383C827.857 197.944 827.402 198.399 826.841 198.399H824.641C822.865 198.399 821.426 199.839 821.426 201.614V201.955C821.426 203.731 822.865 205.17 824.641 205.17H827.179C827.553 205.17 827.857 205.474 827.857 205.848V205.848C827.857 206.222 827.553 206.525 827.179 206.525H824.641C822.865 206.525 821.426 207.964 821.426 209.74V210.081C821.426 211.856 822.865 213.296 824.641 213.296H826.841C827.402 213.296 827.857 213.751 827.857 214.312V214.312C827.857 214.873 827.402 215.327 826.841 215.327H824.641C822.865 215.327 821.426 216.767 821.426 218.543V218.883C821.426 220.659 822.865 222.099 824.641 222.099H826.841C827.402 222.099 827.857 222.553 827.857 223.114V223.114C827.857 223.675 827.402 224.13 826.841 224.13H824.641C822.865 224.13 821.426 225.57 821.426 227.345V227.686C821.426 229.462 822.865 230.901 824.641 230.901H826.841C827.402 230.901 827.857 231.356 827.857 231.917V231.917C827.857 232.478 827.402 232.933 826.841 232.933H824.641C822.865 232.933 821.426 234.372 821.426 236.148V236.489C821.426 238.265 822.865 239.704 824.641 239.704H826.841C827.402 239.704 827.857 240.159 827.857 240.72V240.72C827.857 241.281 827.402 241.735 826.841 241.735H824.472C822.603 241.735 821.087 243.251 821.087 245.12V378.519C821.087 383.753 816.845 387.996 811.611 387.996V387.996C806.377 387.996 802.134 392.238 802.134 397.472V454.864C802.134 457.761 799.785 460.11 796.888 460.11V460.11C793.991 460.11 791.642 462.459 791.642 465.356V518.193C791.642 520.345 789.213 521.474 787.062 521.393V521.393C786.931 521.388 786.839 521.381 786.709 521.362C786.587 521.345 786.464 521.328 786.34 521.31C782.393 520.758 779.458 517.414 779.458 513.429V391.134C779.458 387.169 777.115 383.579 773.486 381.982L771.306 381.022C771.102 380.932 770.881 380.886 770.658 380.886V380.886H770.151C768.749 380.886 767.612 379.749 767.612 378.346V376.992C767.612 376.338 767.081 375.807 766.427 375.807V375.807C765.773 375.807 765.243 376.338 765.243 376.992V376.992C765.243 377.646 764.712 378.177 764.058 378.177H763.915C763.34 378.177 762.873 378.643 762.873 379.218V379.218C762.873 379.773 762.438 380.23 761.884 380.258L758.021 380.451C756.978 380.503 756.104 379.672 756.104 378.628V378.628C756.104 377.937 755.714 377.305 755.096 376.995L754.181 376.538C753.666 376.281 753.096 376.155 752.52 376.172L732.721 376.763C731.606 376.796 730.72 377.709 730.72 378.824V378.824C730.72 379.963 729.797 380.886 728.659 380.886H728.351C727.043 380.886 725.982 381.946 725.982 383.255V405.758C725.982 411.281 721.505 415.758 715.982 415.758H698.414C692.891 415.758 688.414 411.281 688.414 405.758V247.49C688.414 245.06 686.444 243.09 684.014 243.09V243.09C681.584 243.09 679.614 241.12 679.614 238.69V209.415C679.614 203.892 675.137 199.415 669.614 199.415H654.57C651.392 199.415 648.815 196.838 648.815 193.659V193.659C648.815 190.48 646.238 187.904 643.059 187.904H639.172C634.03 187.904 629.861 183.735 629.861 178.593V178.593C629.861 173.451 625.693 169.283 620.551 169.283H563.032C557.51 169.283 553.032 173.76 553.032 179.283V189.415C553.032 194.938 548.555 199.415 543.032 199.415H524.449C518.926 199.415 514.449 203.892 514.449 209.415V501.233C514.449 506.756 509.972 511.233 504.449 511.233H503.465C497.942 511.233 493.465 515.71 493.465 521.233V530.873C493.465 536.294 489.07 540.688 483.65 540.688V540.688C478.229 540.688 473.834 536.294 473.834 530.873V456.906C473.834 451.383 469.357 446.906 463.834 446.906H453.374C447.851 446.906 443.374 442.429 443.374 436.906V416.475C443.374 416.243 443.243 416.031 443.035 415.927V415.927C442.828 415.823 442.697 415.611 442.697 415.379V411.834C442.697 410.427 442.23 409.06 441.368 407.947L436.666 401.871C435.31 400.119 434.574 397.966 434.574 395.75V389.77C434.574 388.851 434.209 387.969 433.559 387.318V387.318C432.908 386.668 432.543 385.786 432.543 384.867V370.221C432.543 369.94 432.316 369.713 432.035 369.713V369.713C431.755 369.713 431.528 369.94 431.528 370.221V385.106C431.528 385.872 431.223 386.607 430.682 387.149V387.149C430.14 387.691 429.836 388.426 429.836 389.192V396.694C429.836 398.745 429.205 400.747 428.029 402.427L423.807 408.46C423.105 409.464 422.728 410.659 422.728 411.885V413.86C422.728 414.623 422.347 415.335 421.713 415.758V415.758C421.078 416.181 420.697 416.893 420.697 417.655V418.524C420.697 419.749 420.055 420.883 419.005 421.513L418.588 421.764C417.797 422.239 417.313 423.094 417.313 424.017V424.017C417.313 424.978 416.788 425.863 415.944 426.323L415.451 426.592C414.304 427.218 413.59 428.421 413.59 429.728V460.757C413.59 464.586 410.294 467.583 406.482 467.22V467.22V467.22C403.118 467.22 400.39 464.492 400.39 461.128V399.35C400.39 393.827 395.913 389.35 390.39 389.35H368.76C363.238 389.35 358.76 393.827 358.76 399.35V427.087C358.76 432.61 354.283 437.087 348.76 437.087H342.361C336.838 437.087 332.361 441.565 332.361 447.087V467.39C332.361 469.166 330.921 470.605 329.146 470.605V470.605C327.37 470.605 325.93 472.045 325.93 473.821V511.742C325.93 513.144 324.794 514.28 323.392 514.28V514.28C321.99 514.28 320.854 513.144 320.854 511.742V495.658C320.854 493.789 319.338 492.274 317.469 492.274V492.274C315.6 492.274 314.085 490.758 314.085 488.889V317.078C314.085 311.556 309.607 307.078 304.085 307.078H256.209C213.902 307.078 179.719 336.872 179.719 379.193V403.049C179.719 408.572 175.241 413.049 169.719 413.049H165.842C153.658 413.049 143.843 434.04 143.843 445.552V485.321C143.843 490.843 139.365 495.321 133.843 495.321H117.967C112.444 495.321 107.967 490.843 107.967 485.321V447.765C107.967 442.242 103.489 437.765 97.9666 437.765H93.9364C88.4135 437.765 83.9364 442.242 83.9364 447.765V534.765C83.9364 537.663 81.5877 540.011 78.6904 540.011V540.011C75.7931 540.011 73.4443 537.663 73.4443 534.765V486.009C73.4443 484.42 72.1563 483.132 70.5675 483.132V483.132C68.9786 483.132 67.6906 481.844 67.6906 480.255V447.765C67.6906 442.242 63.2135 437.765 57.6906 437.765H56.3681C50.8452 437.765 46.3681 433.287 46.3681 427.765V392.24C46.3681 386.717 41.8909 382.24 36.3681 382.24H10C4.47716 382.24 0 386.717 0 392.24V594C0 599.523 4.47715 604 10 604H2480C2485.52 604 2490 599.523 2490 594V216.525C2490 211.002 2485.52 206.525 2480 206.525H2461.57ZM2081.15 398.322C2081.15 398.976 2080.62 399.507 2079.96 399.507H2077.76V399.507C2077.58 399.507 2077.43 399.355 2077.43 399.168V398.322C2077.43 397.667 2077.96 397.137 2078.61 397.137H2079.96C2080.62 397.137 2081.15 397.667 2081.15 398.322V398.322ZM2081.15 392.566C2081.15 393.221 2080.62 393.751 2079.96 393.751H2078.61C2077.96 393.751 2077.43 393.221 2077.43 392.566V392.566C2077.43 391.912 2077.96 391.381 2078.61 391.381H2079.96C2080.62 391.381 2081.15 391.912 2081.15 392.566V392.566ZM2081.15 386.472C2081.15 387.126 2080.62 387.657 2079.96 387.657H2078.61C2077.96 387.657 2077.43 387.126 2077.43 386.472V386.472C2077.43 385.818 2077.96 385.287 2078.61 385.287H2079.96C2080.62 385.287 2081.15 385.818 2081.15 386.472V386.472ZM2081.15 380.378C2081.15 381.032 2080.62 381.563 2079.96 381.563H2078.61C2077.96 381.563 2077.43 381.032 2077.43 380.378V380.378C2077.43 379.723 2077.96 379.193 2078.61 379.193H2079.96C2080.62 379.193 2081.15 379.723 2081.15 380.378V380.378ZM2081.15 374.284C2081.15 374.938 2080.62 375.469 2079.96 375.469H2078.61C2077.96 375.469 2077.43 374.938 2077.43 374.284V374.284C2077.43 373.629 2077.96 373.099 2078.61 373.099H2079.96C2080.62 373.099 2081.15 373.629 2081.15 374.284V374.284ZM2081.15 368.189C2081.15 368.844 2080.62 369.374 2079.96 369.374H2078.61C2077.96 369.374 2077.43 368.844 2077.43 368.189V368.189C2077.43 367.535 2077.96 367.005 2078.61 367.005H2079.96C2080.62 367.005 2081.15 367.535 2081.15 368.189V368.189ZM2081.15 362.434C2081.15 363.088 2080.62 363.619 2079.96 363.619H2078.61C2077.96 363.619 2077.43 363.088 2077.43 362.434V362.434C2077.43 361.779 2077.96 361.249 2078.61 361.249H2079.96C2080.62 361.249 2081.15 361.779 2081.15 362.434V362.434Z" fill="url(#paint0_linear)"/>
<defs>
<linearGradient id="paint0_linear" x1="2001" y1="-350" x2="2001" y2="754" gradientUnits="userSpaceOnUse">
<stop stop-color="#F4A984"/>
<stop offset="1" stop-color="#F4A984" stop-opacity="0"/>
</linearGradient>
</defs>
</svg>
