<svg width="1920" height="96" viewBox="0 0 1600 96" fill="none" xmlns="http://www.w3.org/2000/svg">
<path d="M1914 0H-6V95.58H1914V0Z" fill="url(#paint0_linear)"/>
<mask id="mask0" mask-type="alpha" maskUnits="userSpaceOnUse" x="-6" y="0" width="1920" height="96">
<path d="M1914 0H-6V96H1914V0Z" fill="url(#paint1_linear)"/>
</mask>
<g mask="url(#mask0)">
<path opacity="0.7" fill-rule="evenodd" clip-rule="evenodd" d="M1432.22 -103.06C1427 -99.1704 1421.94 -93.153 1417.07 -85.833C1412.19 -78.5028 1407.46 -69.8109 1402.93 -60.5215C1395.39 -45.0451 1388.35 -27.8441 1382.05 -12.4298L1382.05 -12.4177L1382.05 -12.4157L1382 -12.293L1381.94 -12.1622L1381.87 -11.9899C1380.68 -9.05935 1379.5 -6.19486 1378.36 -3.42075C1374.76 5.32606 1371.43 13.1675 1368.43 19.3739C1365.41 25.6273 1362.77 30.0699 1360.58 32.1529C1359.48 33.2053 1358.71 33.4396 1358.21 33.3525C1357.71 33.2668 1357.02 32.7887 1356.27 31.2322C1354.79 28.1426 1353.61 21.9112 1352.88 11.6033L1350.89 11.7447C1351.62 22.0242 1352.8 28.6207 1354.47 32.099C1355.3 33.8264 1356.39 35.0673 1357.86 35.3232C1359.33 35.5777 1360.73 34.7759 1361.96 33.6024C1364.45 31.2333 1367.22 26.4638 1370.23 20.2448C1373.26 13.9789 1376.61 6.08768 1380.21 -2.65869C1381.39 -5.52995 1382.61 -8.49413 1383.84 -11.5251L1383.91 -11.6772C1390.21 -27.0958 1397.21 -44.2288 1404.73 -59.6449C1409.24 -68.8915 1413.92 -77.4967 1418.73 -84.7247C1423.55 -91.9628 1428.46 -97.7647 1433.42 -101.456C1435.93 -103.332 1438.02 -104.651 1439.73 -105.482C1441.46 -106.321 1442.71 -106.613 1443.58 -106.558C1444.36 -106.509 1444.87 -106.179 1445.24 -105.544C1445.64 -104.839 1445.9 -103.715 1445.93 -102.095C1446 -98.8675 1445.18 -94.1713 1443.75 -88.2793C1442.32 -82.4109 1440.32 -75.4514 1438.06 -67.7312C1437.78 -66.7757 1437.5 -65.8088 1437.21 -64.8309L1437.21 -64.8285L1437.21 -64.8222C1432.88 -50.0196 1427.82 -32.738 1424.27 -15.3375C1420.5 3.20546 1418.42 21.9741 1420.8 38.0967C1421.98 46.0789 1423.24 51.5291 1424.63 54.8022C1425.32 56.4237 1426.1 57.6512 1427.04 58.3442C1427.53 58.7039 1428.08 58.9288 1428.67 58.9698C1429.27 59.0105 1429.83 58.8639 1430.35 58.5986C1431.36 58.0854 1432.29 57.0833 1433.17 55.8234C1434.06 54.5412 1434.98 52.8853 1435.92 50.9324C1437.81 47.0258 1439.85 41.818 1442.07 35.7817C1443.38 32.2049 1444.77 28.3331 1446.22 24.2547C1449.7 14.5298 1453.59 3.62985 1458.01 -7.24717C1464.28 -22.683 1471.57 -37.9734 1480.14 -49.6389C1482.29 -52.5553 1484.1 -54.6205 1485.61 -55.9452C1487.15 -57.2993 1488.23 -57.7439 1488.93 -57.7391C1489.51 -57.7352 1490.08 -57.4194 1490.64 -56.3408C1491.21 -55.2397 1491.64 -53.5308 1491.93 -51.2017C1492.5 -46.5643 1492.42 -39.845 1491.97 -31.5784C1491.51 -23.327 1490.68 -13.5994 1489.76 -2.96917L1489.53 -0.318819C1487.72 20.3248 1485.65 44.0785 1485.28 66.7449C1484.9 90.3658 1486.37 112.923 1492.01 129.597C1494.26 136.252 1496.71 140.95 1499.35 143.919C1502.02 146.916 1504.95 148.211 1508.05 147.846C1511.07 147.491 1514.02 145.578 1516.84 142.695C1519.69 139.796 1522.5 135.812 1525.25 131.1C1536.21 112.273 1546.41 81.1356 1552.45 58.2362L1550.51 57.726C1544.48 80.5964 1534.34 111.513 1523.52 130.094C1520.82 134.733 1518.1 138.561 1515.42 141.295C1512.72 144.044 1510.17 145.583 1507.81 145.86C1505.53 146.129 1503.2 145.237 1500.84 142.589C1498.46 139.912 1496.12 135.506 1493.9 128.957C1488.39 112.625 1486.9 90.3571 1487.28 66.7771C1487.65 44.1858 1489.72 20.4977 1491.52 -0.160357L1491.52 -0.165895L1491.75 -2.79542C1492.68 -13.4197 1493.51 -23.1797 1493.96 -31.4686C1494.42 -39.7423 1494.5 -46.616 1493.91 -51.444C1493.62 -53.8475 1493.15 -55.8394 1492.42 -57.2596C1491.67 -58.7022 1490.54 -59.7282 1488.95 -59.7391C1487.48 -59.749 1485.92 -58.8814 1484.29 -57.4487C1482.62 -55.9865 1480.71 -53.7903 1478.53 -50.8232C1469.81 -38.9546 1462.44 -23.48 1456.15 -7.99996C1451.72 2.91858 1447.8 13.8892 1444.32 23.6288L1444.32 23.6379C1442.87 27.7009 1441.49 31.5496 1440.19 35.0907C1437.97 41.123 1435.96 46.2514 1434.12 50.0636C1433.2 51.9702 1432.34 53.5193 1431.53 54.6773C1430.7 55.8575 1430 56.5305 1429.44 56.8169C1429.18 56.9513 1428.97 56.9856 1428.81 56.9745C1428.65 56.9635 1428.46 56.9039 1428.23 56.7325C1427.73 56.3631 1427.12 55.5421 1426.47 54.0183C1425.18 51.0006 1423.96 45.7727 1422.78 37.8043C1420.45 22.0258 1422.47 3.52739 1426.23 -14.9382C1429.76 -32.2527 1434.8 -49.4587 1439.14 -64.2741L1439.14 -64.2805L1439.14 -64.2831L1439.14 -64.2841L1439.27 -64.7474L1439.42 -65.2581L1439.98 -67.1702C1442.24 -74.8836 1444.26 -81.887 1445.69 -87.8077C1447.12 -93.7048 1448 -98.624 1447.93 -102.135C1447.9 -103.884 1447.63 -105.41 1446.96 -106.548C1446.26 -107.757 1445.16 -108.463 1443.7 -108.554C1442.33 -108.641 1440.71 -108.179 1438.86 -107.281C1436.99 -106.375 1434.79 -104.975 1432.22 -103.06ZM518.025 52.839C527.408 53.2655 536.187 47.0856 544.791 38.0245C551.825 30.6171 558.91 21.0968 566.261 11.2189L566.261 11.2182L566.263 11.2157C567.933 8.97156 569.617 6.709 571.317 4.44858C580.53 -7.80226 590.244 -20.024 600.96 -29.1845C611.67 -38.3396 623.293 -44.36 636.33 -44.36V-46.36C622.637 -46.36 610.567 -40.0278 599.661 -30.7048C588.76 -21.3872 578.932 -9.0052 569.718 3.24646C568.001 5.52946 566.306 7.80681 564.63 10.0594L564.625 10.0666L564.624 10.0671C557.277 19.9394 550.284 29.3356 543.341 36.6474C534.783 45.6594 526.552 51.2245 518.115 50.841C515.987 50.7443 514.502 50.3122 513.502 49.6772C512.532 49.0613 511.959 48.2181 511.699 47.1328C511.43 46.0141 511.488 44.6003 511.886 42.8901C512.282 41.1871 513.001 39.2525 513.99 37.1247C517.655 29.243 524.803 19.1604 531.869 9.19363C532.233 8.67991 532.597 8.16649 532.96 7.65371C533.197 7.31972 533.433 6.98599 533.669 6.65262C537.465 1.28786 541.139 -3.9747 544.09 -8.73079C547.028 -13.4668 549.306 -17.7869 550.246 -21.254C550.715 -22.9876 550.88 -24.6084 550.545 -26.0009C550.197 -27.4477 549.325 -28.5803 547.902 -29.2792C546.529 -29.9532 544.705 -30.1962 542.449 -30.0674C540.181 -29.9378 537.386 -29.4263 534.007 -28.5047C527.149 -26.6344 519.666 -22.3738 511.745 -16.4702C503.815 -10.5589 495.387 -2.95495 486.639 5.66652C474.312 17.8148 461.297 32.0366 448.102 46.4551L448.101 46.4558C442.579 52.4899 437.026 58.5585 431.478 64.524C412.644 84.7758 393.869 103.847 376.49 116.541C359.04 129.287 343.348 135.344 330.517 130.29C324.022 127.731 321.357 124.33 321.034 120.48C320.699 116.483 322.832 111.626 326.905 106.095C335.019 95.0763 350.198 82.2003 365.217 69.6165C365.788 69.1385 366.358 68.6609 366.928 68.1839L366.929 68.1831C373.832 62.4022 380.628 56.7106 386.571 51.3418C392.997 45.5372 398.477 40.0642 402.034 35.2193C403.812 32.7967 405.143 30.4864 405.858 28.3329C406.575 26.1734 406.694 24.0996 405.939 22.2295C405.182 20.3552 403.613 18.851 401.287 17.6991C398.971 16.5518 395.843 15.7218 391.837 15.2081C378.938 13.5544 362.668 17.4499 344.897 24.7417C327.097 32.0455 307.663 42.8112 288.385 55.0457C249.828 79.5157 211.797 109.925 188.548 130.471L189.872 131.969C213.063 111.475 251.01 81.1343 289.457 56.7343C308.681 44.5338 328.006 33.8345 345.656 26.592C363.336 19.3376 379.21 15.6056 391.583 17.1919C395.474 17.6908 398.359 18.4807 400.399 19.4913C402.431 20.4974 403.564 21.6889 404.085 22.9787C404.607 24.2726 404.581 25.8312 403.96 27.7027C403.337 29.5802 402.136 31.6995 400.421 34.0358C396.992 38.7084 391.638 44.0691 385.23 49.8576C379.316 55.2003 372.548 60.8685 365.637 66.6563L364.501 67.6073L363.933 68.0835C348.982 80.6097 333.583 93.6537 325.295 104.91C321.166 110.516 318.642 115.885 319.041 120.647C319.453 125.555 322.913 129.444 329.784 132.15C343.682 137.626 360.188 130.925 377.669 118.156C395.221 105.336 414.111 86.1343 432.942 65.886C438.517 59.8921 444.085 53.807 449.615 47.7643L449.617 47.762L449.618 47.7612C462.797 33.3605 475.754 19.2011 488.043 7.09102C496.76 -1.5 505.114 -9.03297 512.941 -14.8666C520.777 -20.708 528.026 -24.8005 534.533 -26.5752C537.837 -27.4762 540.484 -27.9519 542.564 -28.0706C544.656 -28.1902 546.086 -27.9427 547.02 -27.484C547.904 -27.0502 548.39 -26.4078 548.6 -25.5337C548.823 -24.6054 548.744 -23.3595 548.315 -21.7772C547.458 -18.6124 545.318 -14.5035 542.39 -9.78526C539.475 -5.08713 535.834 0.12969 532.036 5.49743C531.429 6.35589 530.817 7.2185 530.204 8.08361L530.203 8.08423L530.203 8.08466C523.178 17.9915 515.923 28.2243 512.177 36.2816C511.154 38.4823 510.376 40.5533 509.938 42.4368C509.501 44.3131 509.386 46.0665 509.754 47.5993C510.13 49.1655 511.001 50.458 512.43 51.3656C513.829 52.2541 515.698 52.7332 518.025 52.839ZM930.118 -15.2793C928.124 -18.4052 924.504 -20.2562 918.241 -20.0605C905.784 -19.6712 893.887 -9.60937 882.226 5.69393C870.611 20.938 859.459 41.0667 848.413 61.0317L848.26 61.3075C837.288 81.1376 826.414 100.791 815.346 115.1C809.785 122.29 804.134 128.187 798.348 132.084C792.55 135.989 786.56 137.924 780.373 137.071C774.271 136.229 770.219 133.668 767.888 129.716C765.59 125.818 765.065 120.733 765.618 115.025C766.723 103.619 772.202 89.103 777.757 74.9644C778.197 73.8438 778.638 72.7256 779.077 71.6114L779.099 71.5566L779.099 71.5559C784.229 58.5377 789.146 46.0638 790.686 36.5933C791.525 31.4324 791.318 27.391 789.803 24.6731C788.35 22.0666 785.546 20.44 780.51 20.44C775.557 20.44 770.739 22.6277 765.95 26.6128C761.156 30.6011 756.459 36.3349 751.774 43.2864C743.922 54.9377 736.209 69.8462 728.189 85.3502C726.632 88.3584 725.064 91.389 723.482 94.4226C713.765 113.046 703.496 131.763 691.981 145.826C680.48 159.872 667.568 169.48 652.53 169.48C645.101 169.48 640.24 167.546 637.625 163.821C635.041 160.141 634.879 155.019 636.059 149.196C637.246 143.339 639.839 136.537 643.074 129.287C645.814 123.146 649.037 116.635 652.292 110.06C652.882 108.867 653.474 107.673 654.063 106.477C661.782 90.8369 669.18 75.2067 670.674 63.1081C671.418 57.0806 670.671 52.1075 667.942 48.4586C665.223 44.8233 660.374 42.2894 652.431 41.4951C626.854 38.9374 600.905 50.128 578.778 65.3008C556.669 80.4613 538.518 99.5008 528.582 112.391L526.998 111.17C537.042 98.1392 555.341 78.9468 577.647 63.6513C599.935 48.3681 626.366 36.8787 652.63 39.505C660.886 40.3306 666.365 43.0111 669.544 47.2607C672.712 51.4966 673.433 57.0788 672.659 63.3532C671.115 75.8584 663.528 91.8182 655.857 107.363C655.275 108.541 654.693 109.718 654.112 110.891L654.08 110.955L654.08 110.955C650.825 117.532 647.623 124 644.9 130.102C641.68 137.319 639.161 143.958 638.019 149.593C636.87 155.262 637.163 159.683 639.262 162.672C641.33 165.618 645.38 167.48 652.53 167.48C666.652 167.48 679.052 158.458 690.434 144.559C701.801 130.677 711.985 112.134 721.708 93.4975C723.282 90.4817 724.844 87.4629 726.396 84.4616L726.397 84.4605L726.397 84.4598C734.416 68.9595 742.193 53.9249 750.116 42.1687C754.847 35.1476 759.668 29.2377 764.67 25.0754C769.677 20.9099 774.933 18.44 780.51 18.44C786.004 18.44 789.63 20.256 791.55 23.6992C793.407 27.031 793.517 31.6464 792.66 36.9143C791.083 46.6109 786.085 59.2897 780.985 72.2243L780.985 72.2254C780.529 73.3807 780.073 74.5382 779.618 75.6957C774.035 89.9071 768.681 104.146 767.609 115.218C767.073 120.748 767.625 125.332 769.611 128.7C771.564 132.012 775.004 134.311 780.647 135.089C786.206 135.856 791.707 134.146 797.23 130.425C802.765 126.698 808.264 120.988 813.764 113.877C824.738 99.6892 835.552 80.1434 846.569 60.2331L846.663 60.0634C857.688 40.1358 868.913 19.8658 880.636 4.48176C892.313 -10.8431 904.716 -21.6388 918.179 -22.0595C924.876 -22.2688 929.305 -20.2722 931.804 -16.3549C934.24 -12.5368 934.676 -7.1276 934.038 -0.885431C933.396 5.39223 931.642 12.7187 929.482 20.5262C928.401 24.4349 927.214 28.4775 926.008 32.5804L925.953 32.7654C924.764 36.811 923.558 40.9151 922.413 45.0211C920.088 53.3618 918.026 61.6792 916.89 69.4658C915.753 77.2601 915.553 84.4581 916.908 90.5799C918.258 96.6769 921.141 101.682 926.178 105.185C931.238 108.702 938.581 110.78 948.99 110.78V112.78C938.339 112.78 930.546 110.656 925.037 106.827C919.506 102.982 916.391 97.4954 914.956 91.0121C913.526 84.5535 913.757 77.0829 914.911 69.1771C916.065 61.2637 918.155 52.8496 920.487 44.484C921.632 40.3749 922.839 36.27 924.024 32.2384L924.03 32.216L924.089 32.0164C925.296 27.9109 926.478 23.8836 927.555 19.9929C929.71 12.2015 931.425 5.01128 932.048 -1.08887C932.676 -7.22452 932.175 -12.0543 930.118 -15.2793ZM1243.17 79.0927C1241.3 72.8591 1237.38 66.0441 1232.16 58.9613C1226.94 51.8687 1220.39 44.4546 1213.21 37.0209C1201.25 24.6325 1187.48 12.1379 1175.15 0.942266L1175.15 0.939886C1172.69 -1.29508 1170.28 -3.47825 1167.96 -5.59848C1160.97 -11.9774 1154.74 -17.7813 1149.94 -22.7252C1145.09 -27.7065 1141.82 -31.699 1140.61 -34.4702C1140 -35.8704 1140.04 -36.6723 1140.3 -37.1146C1140.55 -37.55 1141.23 -38.0367 1142.95 -38.2077C1146.36 -38.547 1152.62 -37.5174 1162.56 -34.6785L1163.11 -36.6015C1153.2 -39.4326 1146.59 -40.5799 1142.75 -40.1978C1140.85 -40.0081 1139.31 -39.4095 1138.56 -38.1094C1137.82 -36.8162 1138.1 -35.2324 1138.78 -33.671C1140.15 -30.5191 1143.69 -26.2851 1148.5 -21.3312C1153.35 -16.3399 1159.63 -10.5001 1166.61 -4.12151C1168.94 -1.99253 1171.35 0.197065 1173.82 2.43646C1186.15 13.6327 1199.86 26.0739 1211.77 38.4104C1218.92 45.8098 1225.41 53.1529 1230.55 60.1467C1235.71 67.1503 1239.48 73.7509 1241.25 79.6674C1242.15 82.6734 1242.68 85.0875 1242.88 86.9791C1243.07 88.891 1242.92 90.1633 1242.57 90.9588C1242.26 91.6788 1241.77 92.0421 1241.05 92.1711C1240.25 92.3146 1239.11 92.1702 1237.57 91.6467C1234.52 90.6042 1230.38 88.228 1225.34 84.8693C1220.31 81.5239 1214.46 77.2598 1207.97 72.499C1207.17 71.9098 1206.36 71.313 1205.54 70.7096C1193.11 61.5735 1178.6 50.9067 1163.45 41.6219C1147.32 31.7294 1130.4 23.3553 1114.43 20.0804C1106.53 18.459 1100.98 17.7759 1097.42 17.9668C1095.66 18.0614 1094.24 18.3757 1093.27 19.0248C1092.76 19.3618 1092.37 19.7983 1092.12 20.342C1091.88 20.8832 1091.83 21.4632 1091.9 22.0429C1092.04 23.1638 1092.66 24.3818 1093.54 25.6406C1094.44 26.9216 1095.68 28.3492 1097.2 29.9021C1100.22 33.0088 1104.42 36.706 1109.33 40.8587C1112.24 43.318 1115.41 45.9401 1118.74 48.702L1118.74 48.7062L1118.74 48.7072C1126.69 55.2963 1135.61 62.6815 1144.31 70.5537C1156.67 81.7259 1168.55 93.8095 1176.58 105.855C1178.59 108.866 1179.91 111.272 1180.64 113.144C1181.38 115.057 1181.43 116.224 1181.18 116.883C1180.98 117.42 1180.49 117.854 1179.29 118.009C1178.06 118.168 1176.3 117.992 1174.02 117.463C1169.47 116.409 1163.18 114.042 1155.56 110.788C1147.96 107.539 1139.11 103.433 1129.44 98.9261L1127.02 97.8022L1127.02 97.8016C1108.24 89.0467 1086.63 78.9728 1065.46 70.8775C1043.39 62.4411 1021.69 56.1095 1004.09 55.7003C997.072 55.537 991.819 56.2336 988.125 57.7021C984.396 59.1848 982.177 61.4951 981.46 64.5296C980.761 67.4904 981.549 70.9184 983.292 74.5594C985.044 78.2199 987.824 82.2286 991.314 86.419C1005.26 103.16 1031.03 123.393 1050.48 136.901L1051.62 135.259C1032.19 121.767 1006.61 101.662 992.851 85.1391C989.415 81.0134 986.748 77.1482 985.096 73.6959C983.434 70.2241 982.861 67.3004 983.407 64.9894C983.935 62.7521 985.569 60.8708 988.864 59.5606C992.195 58.2363 997.137 57.5391 1004.05 57.6997C1021.28 58.1006 1042.71 64.3239 1064.74 72.7456C1085.85 80.8149 1107.4 90.862 1126.2 99.6236L1126.2 99.6238L1128.59 100.739C1138.26 105.243 1147.14 109.364 1154.78 112.627C1162.4 115.884 1168.83 118.314 1173.57 119.411C1175.92 119.958 1177.96 120.197 1179.54 119.993C1181.15 119.785 1182.5 119.078 1183.06 117.58C1183.57 116.205 1183.29 114.443 1182.5 112.418C1181.7 110.352 1180.29 107.809 1178.24 104.745C1170.07 92.4905 1158.05 80.2742 1145.66 69.07C1136.91 61.1678 1127.94 53.7347 1119.98 47.1355L1119.98 47.1345L1119.98 47.1315C1116.65 44.3773 1113.51 41.7684 1110.62 39.3313C1105.71 35.1815 1101.58 31.538 1098.63 28.5065C1097.15 26.9903 1095.99 25.6493 1095.18 24.4924C1094.35 23.3133 1093.96 22.424 1093.88 21.7984C1093.85 21.5047 1093.89 21.3016 1093.95 21.1537C1094.02 21.0082 1094.14 20.8494 1094.38 20.6889C1094.9 20.3429 1095.88 20.0529 1097.53 19.9639C1100.81 19.7879 1106.14 20.421 1114.03 22.0396C1129.65 25.2447 1146.34 33.4756 1162.41 43.3269C1177.48 52.5661 1191.92 63.1864 1204.37 72.3304C1205.18 72.9306 1205.99 73.5244 1206.79 74.111C1213.27 78.8677 1219.16 83.1592 1224.23 86.5343C1229.28 89.8961 1233.6 92.4052 1236.93 93.5395C1238.58 94.1046 1240.11 94.3715 1241.4 94.14C1242.78 93.8941 1243.82 93.0962 1244.41 91.7595C1244.96 90.4984 1245.08 88.8186 1244.86 86.7739C1244.65 84.7088 1244.09 82.1617 1243.17 79.0927Z" fill="url(#paint2_linear)"/>
<path opacity="0.1" d="M569.135 33.4482C372.127 33.4482 339.049 77.701 -8.42969 77.701V147.42H1911.57V-1.62C1490.01 -1.62 1544.27 60.5844 1181.14 60.5844C818.005 60.5844 739.744 33.4482 569.135 33.4482Z" fill="url(#paint3_linear)"/>
</g>
<defs>
<linearGradient id="paint0_linear" x1="476.769" y1="-280.214" x2="476.769" y2="188.717" gradientUnits="userSpaceOnUse">
<stop offset="0.278352" stop-color="#EEEF99"/>
<stop offset="0.76976" stop-color="#B9D079"/>
</linearGradient>
<linearGradient id="paint1_linear" x1="476.769" y1="-281.446" x2="476.769" y2="189.547" gradientUnits="userSpaceOnUse">
<stop offset="0.278352" stop-color="#EEEF99"/>
<stop offset="0.76976" stop-color="#B9D079"/>
</linearGradient>
<linearGradient id="paint2_linear" x1="833.15" y1="-4.9106" x2="833.15" y2="219.839" gradientUnits="userSpaceOnUse">
<stop stop-color="white"/>
<stop offset="1" stop-color="white" stop-opacity="0"/>
</linearGradient>
<linearGradient id="paint3_linear" x1="951.57" y1="-58.2258" x2="951.57" y2="151.992" gradientUnits="userSpaceOnUse">
<stop offset="0.164151" stop-color="#82A637"/>
<stop offset="0.890649" stop-color="#1B8877"/>
</linearGradient>
</defs>
</svg>
