<svg width="207" height="497" viewBox="0 0 207 497" fill="none" xmlns="http://www.w3.org/2000/svg">
<path d="M119.379 34.1056H101.274L98.8223 23.1625C98.8223 23.1625 105.989 27.3133 107.686 24.4832C109.383 21.6531 109.006 22.7851 110.704 23.1625C112.401 23.5398 112.401 21.2757 114.475 22.5965C116.739 24.1059 120.133 31.2755 119.379 34.1056Z" fill="#6B1912"/>
<path d="M100.709 483.718L122.963 481.831L121.831 454.284L99.3887 456.36L100.709 483.718Z" fill="#D88D6C"/>
<path d="M142.199 479.944C142.199 479.944 127.489 473.152 125.037 468.246C125.037 468.246 120.699 452.398 114.099 460.699C114.099 460.699 107.309 466.171 97.6911 461.831L96.5596 491.831L163.133 491.642C161.435 487.114 159.927 482.02 142.199 479.944Z" fill="url(#paint0_linear)"/>
<path d="M96.5598 492.019L96.1826 496.736L163.321 496.548C163.321 494.661 163.887 493.717 162.944 491.831L96.5598 492.019Z" fill="#C73E39"/>
<path d="M3.20605 479.944L25.4601 483.718L31.3064 456.926L9.24106 453.152L3.20605 479.944Z" fill="#D88D6C"/>
<path d="M46.0161 479.944C46.0161 479.944 31.3059 473.152 28.8542 468.246C28.8542 468.246 32.2489 455.794 24.328 462.02C24.328 462.02 10.7494 467.114 5.09163 460.888L0.56543 492.019L67.1384 491.831C65.0639 487.114 63.5552 482.02 46.0161 479.944Z" fill="url(#paint1_linear)"/>
<path d="M0.37715 492.019L0 496.736L67.1388 496.548C67.1388 494.661 67.7046 493.718 66.7617 491.831L0.37715 492.019Z" fill="#C73E39"/>
<path d="M126.734 224.101C126.734 224.101 130.695 337.495 127.111 466.36C127.111 466.36 116.362 476.548 95.9936 469.756C95.9936 469.756 96.1821 326.363 90.7129 269.383C90.7129 269.383 65.0644 377.682 32.6265 471.454C32.6265 471.454 10.9383 475.605 3.20605 463.341C3.20605 463.341 46.9595 311.458 53.3717 224.101H126.734Z" fill="url(#paint2_linear)"/>
<path d="M126.734 224.101H53.3714C52.8056 230.705 52.2398 237.686 51.2969 244.855C95.0503 245.044 118.247 233.912 126.922 228.818C126.922 225.611 126.734 224.101 126.734 224.101Z" fill="#402B2B" fill-opacity="0.45" style="mix-blend-mode:multiply"/>
<path d="M166.716 145.235C146.537 109.576 130.695 97.5003 130.695 97.5003C122.02 102.406 128.62 135.99 128.62 135.99C134.09 146.744 137.861 156.367 145.971 165.801L166.716 145.235Z" fill="#D1402C"/>
<path d="M130.694 97.5003C130.694 97.5003 129.751 119.198 126.923 223.535C126.923 223.535 101.274 236.554 50.1654 227.497C50.1654 227.497 49.9768 196.177 42.9989 168.442C42.9989 168.442 29.986 116.179 36.5868 100.897C36.5868 100.897 78.2657 75.048 130.694 97.5003Z" fill="url(#paint3_linear)"/>
<path d="M91.0901 76.8212L91.4673 90.3307C91.4673 90.3307 88.2612 95.0475 80.529 95.6136C72.7967 95.9909 69.0249 91.6514 69.0249 91.6514L68.2705 71.5383C77.8887 75.6892 87.3183 77.3872 91.0901 76.8212Z" fill="url(#paint4_linear)"/>
<path d="M90.3361 71.2746L91.0904 86.1799C87.3186 86.7459 77.8889 85.0478 68.4593 80.897L67.8936 71.2746H90.3361Z" fill="url(#paint5_linear)" style="mix-blend-mode:multiply"/>
<path d="M39.2275 130.33C39.2275 130.33 50.3544 155.424 54.3148 166.744C58.2753 177.876 58.2753 222.214 79.0205 230.705C79.0205 230.705 56.9552 229.384 49.9772 227.497C49.9772 227.497 49.6 194.102 42.8107 168.442C42.8107 168.442 38.0959 141.462 36.21 129.198L39.2275 130.33Z" fill="#EE4D47" fill-opacity="0.29" style="mix-blend-mode:multiply"/>
<path d="M53.9375 38.4452C54.3147 38.6338 54.6919 44.6714 54.6919 44.6714L56.2006 57.3126L63.1786 62.7841L67.139 64.4822C67.139 64.4822 72.9854 62.0294 72.231 59.7653C71.4766 57.6899 67.7048 27.8794 66.9504 27.8794C66.1961 27.8794 60.1611 32.2189 60.1611 32.2189L53.9375 38.4452Z" fill="#402B2B"/>
<path d="M109.195 27.1247C110.892 27.1247 108.252 47.8789 108.252 47.8789L105.235 39.5772L103.16 29.5774L109.195 27.1247Z" fill="#402B2B"/>
<path d="M106.366 31.2755L109.572 57.8787C109.572 57.8787 110.704 80.331 92.2219 81.6517C73.7399 82.7837 61.1042 64.4823 61.1042 64.4823C61.1042 64.4823 58.8411 67.1237 56.3894 62.5955C54.1263 58.0673 55.635 52.0297 58.8411 51.4637C62.2357 51.0864 63.7445 52.9731 64.1217 55.8032C64.4989 58.6333 64.8761 60.7088 64.8761 60.7088L67.7049 60.3315L65.6304 38.4452C65.6304 38.4452 69.968 29.9548 74.8714 28.2568C79.7748 26.5587 84.1124 33.3509 84.1124 33.3509C84.1124 33.3509 88.6387 34.2943 92.9763 33.3509C97.3139 32.4076 100.143 31.2755 100.143 31.2755C100.143 31.2755 102.783 32.0302 106.366 31.2755Z" fill="url(#paint6_linear)"/>
<path d="M92.976 71.4633C86.7525 71.8406 85.8096 64.671 85.8096 64.671C85.8096 64.671 100.142 62.9729 100.52 62.7843C100.52 62.7843 101.651 70.8972 92.976 71.4633Z" fill="#893D43"/>
<path d="M86.3755 66.9351C85.8097 65.6144 85.6211 64.671 85.6211 64.671C85.6211 64.671 99.9541 62.9729 100.331 62.7843C100.331 62.7843 100.52 63.7276 100.331 65.237L86.3755 66.9351Z" fill="#FFFEFF"/>
<path d="M86.9419 24.4832V5.23836C75.4378 5.80438 63.5565 8.06846 57.7101 15.2381C50.7322 23.7285 54.6927 43.3507 54.6927 43.3507C54.6927 43.3507 63.1793 42.4073 64.688 39.5772C66.1968 36.7471 80.5298 32.7849 91.4682 33.3509C102.407 33.9169 107.687 32.7849 113.156 28.068C114.288 27.1246 115.231 25.8039 115.985 24.2945H86.9419V24.4832Z" fill="#402B2B"/>
<path d="M53.3716 36.181C53.3716 36.181 61.4811 33.5396 75.0597 32.4075C97.8794 22.7851 107.686 24.4832 107.686 24.4832C107.686 24.4832 107.498 17.1249 105.423 12.0306C103.349 6.93642 89.3927 -0.233211 77.7 0.898838C66.0073 2.03089 53.9373 10.7099 52.0514 19.0116C50.5427 25.4265 53.3716 36.181 53.3716 36.181Z" fill="url(#paint7_linear)"/>
<path d="M67.1387 33.3509C69.5904 21.653 87.1295 15.8042 99.5766 15.9928C111.835 16.1815 120.51 26.3699 121.83 33.3509C122.396 36.181 120.133 36.5584 119.379 34.1056C118.813 32.4075 117.681 24.2945 106.366 25.2379C95.0504 26.1813 95.6161 36.3697 89.9584 37.3131C84.6778 38.2565 78.6428 34.4829 67.1387 33.3509Z" fill="url(#paint8_linear)"/>
<path d="M105.046 35.9923V34.6716C104.48 34.6716 100.143 34.1056 94.8623 35.2376L95.0509 37.3131C99.3885 35.9923 105.046 35.9923 105.046 35.9923Z" fill="#402B2B"/>
<path d="M73.1743 40.7093C76.5689 38.8225 82.9811 37.8791 82.9811 37.6904L82.2267 35.8036C82.0381 35.8036 76.1918 36.9357 72.4199 39.3886L73.1743 40.7093Z" fill="#402B2B"/>
<path d="M92.0332 47.1243C92.0332 47.1243 92.599 51.0864 94.1078 52.2185C95.6165 53.3505 98.2568 54.2939 98.634 55.2373C99.0112 55.992 98.2568 57.5014 96.5595 58.0674C94.8621 58.6334 94.6735 59.1995 94.6735 59.1995C94.6735 59.1995 98.0682 59.5768 99.7656 57.5014C101.463 55.426 99.577 53.7279 97.8796 52.7845C96.1823 51.8411 95.4279 51.4638 94.6735 50.8978C93.7305 50.3317 92.0332 47.1243 92.0332 47.1243Z" fill="#D87C60"/>
<path d="M83.9236 49.1996C83.9236 51.0864 82.6035 52.7845 80.9062 52.7845C79.2088 52.7845 77.8887 51.275 77.8887 49.1996C77.8887 47.3129 79.2088 45.6148 80.9062 45.6148C82.6035 45.6148 83.9236 47.1242 83.9236 49.1996Z" fill="#402B2B"/>
<path d="M104.669 46.7469C104.669 48.6336 103.349 50.3317 101.651 50.3317C99.9539 50.3317 98.6338 48.8223 98.6338 46.7469C98.6338 44.8601 99.9539 43.1621 101.651 43.1621C103.349 43.3507 104.669 44.8601 104.669 46.7469Z" fill="#402B2B"/>
<path d="M197.079 97.3116H80.5293V187.31H197.079V97.3116Z" fill="#8C5E5E"/>
<path d="M197.267 97.3116H154.834V187.31H197.267V97.3116Z" fill="#694646"/>
<path d="M182.746 97.3116H171.808V109.764H182.746V97.3116Z" fill="#A3774A"/>
<path d="M120.134 97.3116H109.195V109.764H120.134V97.3116Z" fill="#A3774A"/>
<path d="M197.268 163.537C197.268 163.537 191.233 167.499 189.536 169.197C187.838 170.895 184.821 187.121 187.838 188.819C190.856 190.517 196.702 188.819 198.588 189.196C200.663 189.574 206.697 185.8 206.697 182.781C206.697 179.762 202.926 159.763 201.983 159.386C201.04 159.008 197.268 156.556 197.268 156.556V163.537Z" fill="#F4A984"/>
<path d="M121.453 162.216H85.0547V179.951H121.453V162.216Z" fill="white"/>
<path fill-rule="evenodd" clip-rule="evenodd" d="M49.2225 185.234C35.4552 165.235 33.5693 104.67 33.5693 104.67C52.4286 107.123 65.0643 132.405 65.0643 132.594L67.8932 168.819L116.024 176.531L118.625 174.102C118.625 174.102 129.752 168.442 138.804 169.386C138.804 169.386 142.953 170.14 142.01 172.593C141.633 173.914 142.388 174.763 143.142 175.612C143.896 176.461 144.651 177.31 144.274 178.631C143.955 179.745 144.241 180.59 144.522 181.422C144.908 182.563 145.284 183.677 144.085 185.423C144.085 185.423 145.594 187.687 143.896 189.762C143.819 189.857 143.738 189.956 143.653 190.06C141.862 192.255 138.367 196.538 137.107 196.177C136.633 196.042 135.529 195.858 134.289 195.652C132.074 195.283 129.428 194.842 129.186 194.479C128.809 193.913 128.432 192.781 130.318 191.649C130.318 191.649 128.243 192.215 125.603 191.838C122.963 191.649 119.191 189.574 119.191 189.574L118.49 188.989C65.5914 193.33 49.2225 185.234 49.2225 185.234Z" fill="url(#paint9_linear)"/>
<path d="M70.3449 160.14L65.0643 132.405C65.0643 132.405 55.4461 103.349 36.5869 100.897C36.5869 100.897 23.0082 109.387 39.7929 167.121L70.3449 160.14Z" fill="url(#paint10_linear)"/>
<defs>
<linearGradient id="paint0_linear" x1="129.846" y1="464.091" x2="129.846" y2="492.749" gradientUnits="userSpaceOnUse">
<stop stop-color="#F4A984"/>
<stop offset="1" stop-color="#EE4D47"/>
</linearGradient>
<linearGradient id="paint1_linear" x1="33.8519" y1="453.771" x2="33.8519" y2="492.889" gradientUnits="userSpaceOnUse">
<stop stop-color="#F4A984"/>
<stop offset="1" stop-color="#EE4D47"/>
</linearGradient>
<linearGradient id="paint2_linear" x1="65.9088" y1="153.949" x2="65.9088" y2="472.13" gradientUnits="userSpaceOnUse">
<stop stop-color="#822626"/>
<stop offset="0.943497" stop-color="#402B2B"/>
</linearGradient>
<linearGradient id="paint3_linear" x1="82.7066" y1="55.3769" x2="82.7066" y2="234.6" gradientUnits="userSpaceOnUse">
<stop stop-color="#F4A984"/>
<stop offset="1" stop-color="#EE4D47"/>
</linearGradient>
<linearGradient id="paint4_linear" x1="72.1405" y1="89.3578" x2="91.2254" y2="97.5888" gradientUnits="userSpaceOnUse">
<stop stop-color="#FFB3B6"/>
<stop offset="1" stop-color="#FFC8C1"/>
</linearGradient>
<linearGradient id="paint5_linear" x1="71.7636" y1="79.891" x2="90.9563" y2="88.019" gradientUnits="userSpaceOnUse">
<stop stop-color="#FFB3B6" stop-opacity="0.31"/>
<stop offset="1" stop-color="#FFC8C1"/>
</linearGradient>
<linearGradient id="paint6_linear" x1="112.03" y1="75.1917" x2="107.948" y2="38.714" gradientUnits="userSpaceOnUse">
<stop stop-color="#FFB3B6"/>
<stop offset="1" stop-color="#FFC8C1"/>
</linearGradient>
<linearGradient id="paint7_linear" x1="79.6473" y1="-18.2309" x2="79.6473" y2="36.6278" gradientUnits="userSpaceOnUse">
<stop stop-color="#F4A984"/>
<stop offset="1" stop-color="#EE4D47"/>
</linearGradient>
<linearGradient id="paint8_linear" x1="78.2142" y1="10.5563" x2="78.2142" y2="67.5876" gradientUnits="userSpaceOnUse">
<stop stop-color="#F4A984"/>
<stop offset="1" stop-color="#EE4D47"/>
</linearGradient>
<linearGradient id="paint9_linear" x1="52.1428" y1="157.208" x2="149.911" y2="189.798" gradientUnits="userSpaceOnUse">
<stop stop-color="#FFB3B6"/>
<stop offset="1" stop-color="#FFC8C1"/>
</linearGradient>
<linearGradient id="paint10_linear" x1="50.8726" y1="81.7096" x2="50.8726" y2="149.604" gradientUnits="userSpaceOnUse">
<stop stop-color="#F4A984"/>
<stop offset="1" stop-color="#EE4D47"/>
</linearGradient>
</defs>
</svg>
