<svg width="234" height="162" viewBox="0 0 234 162" fill="none" xmlns="http://www.w3.org/2000/svg">
<path d="M231.375 138.59C228.988 127.607 225.05 117.221 219.8 107.671C219.084 106.358 218.249 104.925 217.414 103.612C211.328 93.4648 203.81 84.3919 195.099 76.5129C194.025 75.4385 192.832 74.4835 191.639 73.5284C182.331 65.7688 171.711 59.4417 160.256 54.9053C158.824 54.3084 157.392 53.8309 155.96 53.3534C144.505 49.2945 132.095 47.0263 119.327 46.7876C118.611 46.7876 117.776 46.7876 117.06 46.7876C116.344 46.7876 115.508 46.7876 114.792 46.7876C101.905 47.0263 89.6145 49.2945 78.1591 53.3534C76.7272 53.8309 75.2953 54.4278 73.8633 54.9053C62.408 59.4417 51.7879 65.7688 42.4804 73.5284C41.2871 74.4835 40.0938 75.5579 39.0199 76.5129C30.309 84.3919 22.6721 93.4648 16.7058 103.612C15.8705 104.925 15.1545 106.358 14.3192 107.671C9.06884 117.221 5.13108 127.607 2.74454 138.59C2.38656 140.142 2.14788 141.694 1.7899 143.246C0.596634 149.931 0 156.736 0 163.66H234C234 156.736 233.403 149.812 232.21 143.246C231.971 141.694 231.733 140.142 231.375 138.59Z" fill="url(#paint0_linear)"/>
<path fill-rule="evenodd" clip-rule="evenodd" d="M114.793 46.6682V163.66H119.327V46.6682H117.06H114.793ZM73.8635 54.9053L102.979 163.779H107.633L78.04 53.3534C77.696 53.4785 77.3438 53.6037 76.9855 53.731L76.9854 53.731L76.9853 53.731L76.9852 53.7311L76.9852 53.7311L76.9851 53.7311L76.985 53.7311L76.9849 53.7312C75.9764 54.0895 74.92 54.4649 73.8635 54.9053ZM89.376 163.66L39.0201 76.5129L39.3425 76.2259L39.3427 76.2257C40.3305 75.3461 41.4055 74.3888 42.4805 73.5284L94.507 163.66H89.376ZM14.3194 107.671L70.4031 163.779H76.7274L16.5866 103.612C16.2286 104.269 15.8408 104.955 15.453 105.641C15.0652 106.328 14.6774 107.014 14.3194 107.671ZM37.2301 163.66L1.79004 143.246C1.98763 142.389 2.14888 141.533 2.3139 140.656L2.31392 140.656C2.44786 139.944 2.5843 139.219 2.74468 138.471L46.299 163.66H37.2301ZM126.367 163.779H131.021L160.137 54.9053C158.705 54.3084 157.273 53.8309 155.841 53.3534L126.367 163.779ZM144.744 163.779H139.493L191.639 73.6478C192.832 74.6028 194.026 75.5579 195.1 76.6323L144.744 163.779ZM157.273 163.779H163.597L219.681 107.671C218.965 106.358 218.13 104.925 217.294 103.612L157.273 163.779ZM196.89 163.779H187.821L231.375 138.709C231.733 140.261 232.091 141.813 232.33 143.365L196.89 163.779Z" fill="url(#paint1_linear)"/>
<path d="M65.373 48.9414C54.4039 48.9414 50.2904 39.3392 50.2904 25.9647C50.2904 12.5903 46.5197 1.61638 31.7799 0.930507C12.584 0.244637 14.298 18.7631 14.298 41.3968C14.298 70.2033 4.01441 51.6849 -10.3825 67.8028C-22.7228 81.5202 -6.95461 105.869 -2.15563 113.07H59.8883C61.945 109.298 67.0867 100.039 72.9141 88.7218C85.9399 64.7163 76.3421 48.9414 65.373 48.9414Z" fill="url(#paint2_linear)"/>
<path opacity="0.2" fill-rule="evenodd" clip-rule="evenodd" d="M35.893 53.3995H32.8081V96.4073L19.849 79.1207L17.3809 80.9726L32.8081 101.551V113.07H35.893V80.5759L48.9655 64.3557L46.5639 62.4184L35.893 75.6588V53.3995Z" fill="white"/>
<path d="M78.0558 113.413H-13.8105V164.511H78.0558V113.413Z" fill="white"/>
<defs>
<linearGradient id="paint0_linear" x1="117" y1="8.59345" x2="117" y2="163.66" gradientUnits="userSpaceOnUse">
<stop stop-color="#D3D86C"/>
<stop offset="1" stop-color="#82A637"/>
</linearGradient>
<linearGradient id="paint1_linear" x1="210.075" y1="46.3968" x2="210.075" y2="317.894" gradientUnits="userSpaceOnUse">
<stop stop-color="#084F15" stop-opacity="0"/>
<stop offset="1" stop-color="#084F15"/>
</linearGradient>
<linearGradient id="paint2_linear" x1="32.0952" y1="0.912048" x2="32.0952" y2="135.859" gradientUnits="userSpaceOnUse">
<stop offset="0.422311" stop-color="#2CA77F"/>
<stop offset="1" stop-color="#1B8877"/>
</linearGradient>
</defs>
</svg>
