<svg width="585" height="296" viewBox="0 0 585 296" fill="none" xmlns="http://www.w3.org/2000/svg">
<path d="M398.886 65.501C340.113 65.501 292.564 166.395 292.564 290.746H505.333C505.333 166.269 457.659 65.501 398.886 65.501Z" fill="url(#paint0_linear)"/>
<path d="M398.886 65.501C340.113 65.501 292.564 166.395 292.564 290.746H505.333C505.333 166.269 457.659 65.501 398.886 65.501Z" fill="url(#paint1_linear)"/>
<mask id="mask0" mask-type="alpha" maskUnits="userSpaceOnUse" x="292" y="65" width="214" height="226">
<path d="M398.886 65.501C340.113 65.501 292.564 166.395 292.564 290.746H505.333C505.333 166.269 457.659 65.501 398.886 65.501Z" fill="url(#paint2_linear)"/>
</mask>
<g mask="url(#mask0)">
<path opacity="0.2" d="M309.247 85.8987C342.936 70.5526 410.971 45.4506 413.601 67.8122C416.887 95.7641 222.149 215.793 288.705 190.307C355.261 164.822 412.779 94.942 427.569 119.605C442.36 144.269 297.743 246.211 346.223 241.279C394.702 236.346 454.685 122.894 473.584 140.981C492.482 159.067 349.509 284.851 381.555 295.538C413.601 306.226 501.521 127.827 536.853 123.716" stroke="url(#paint3_linear)" stroke-width="2"/>
</g>
<path opacity="0.3" d="M491.543 290.746H505.333C505.333 166.269 457.659 65.501 398.886 65.501C396.57 65.501 394.272 65.6576 391.993 65.9662C447.554 73.4837 491.543 171.176 491.543 290.746Z" fill="#C9D983"/>
<path d="M516.825 126.573C473.817 126.573 439.007 200.406 439.007 291.403H594.643C594.517 200.406 559.707 126.573 516.825 126.573Z" fill="url(#paint4_linear)"/>
<mask id="mask1" mask-type="alpha" maskUnits="userSpaceOnUse" x="439" y="126" width="156" height="166">
<path d="M516.825 126.573C473.817 126.573 439.007 200.406 439.007 291.403H594.643C594.517 200.406 559.707 126.573 516.825 126.573Z" fill="url(#paint5_linear)"/>
</mask>
<g mask="url(#mask1)">
<path opacity="0.2" d="M492.365 89.1419C461.836 138.873 412.924 228.132 461.514 187.321C522.252 136.306 580.097 152.669 555.995 187.321C531.893 221.972 461.514 203.684 468.263 240.26C473.662 269.521 552.139 226.143 590.702 200.796" stroke="url(#paint6_linear)" stroke-width="2"/>
</g>
<path opacity="0.3" fill-rule="evenodd" clip-rule="evenodd" d="M578.225 291.403H594.643C594.517 200.406 559.706 126.573 516.825 126.573C514.048 126.573 511.306 126.881 508.604 127.481C547.639 136.178 578.107 206.281 578.225 291.403Z" fill="#C9D983"/>
<path d="M210.478 46.4569C142.311 46.4569 87.0195 155.247 87.0195 289.433H333.936C333.81 155.247 278.645 46.4569 210.478 46.4569Z" fill="url(#paint7_linear)"/>
<mask id="mask2" mask-type="alpha" maskUnits="userSpaceOnUse" x="87" y="46" width="247" height="244">
<path d="M210.478 46.4569C142.311 46.4569 87.0195 155.247 87.0195 289.433H333.936C333.81 155.247 278.645 46.4569 210.478 46.4569Z" fill="url(#paint8_linear)"/>
</mask>
<g mask="url(#mask2)">
<path opacity="0.2" d="M97.5264 95.4847C110.538 80.1291 139.768 52.7682 152.594 66.1695C168.627 82.921 134.471 140.853 156.777 147.833C179.083 154.813 210.45 45.23 237.636 55.6997C264.821 66.1695 120.529 235.779 170.718 242.061C220.906 248.343 243.909 96.8806 265.518 107.35C287.127 117.82 216.724 199.484 241.121 223.215C265.518 246.947 278.066 135.27 297.583 147.833C317.101 160.397 303.16 223.215 284.339 265.792" stroke="url(#paint9_linear)" stroke-width="2"/>
</g>
<path opacity="0.2" d="M306.355 289.433H333.936C333.81 155.247 278.645 46.4569 210.478 46.4569C205.816 46.4569 201.214 46.9657 196.687 47.9567C258.352 61.4557 306.237 164.423 306.355 289.433Z" fill="#C9D983"/>
<path d="M386.405 140.526H384.125V288.23H386.405V140.526Z" fill="#0C5E59"/>
<path d="M401.911 131.174C397.008 131.174 392.448 134.709 389.256 137.903C391.422 134.823 394.386 131.06 396.666 130.375C400.656 129.121 403.849 129.691 403.849 129.691C403.849 129.691 400.2 124.558 394.728 126.954C392.334 127.98 390.282 131.402 388.8 134.709C389.598 131.63 390.282 127.98 389.712 124.672C388.344 116.232 378.995 115.548 378.995 115.548C378.995 115.548 384.239 122.848 385.151 131.402C385.265 132.542 385.379 133.683 385.493 134.709C384.695 129.805 382.757 123.874 377.969 120.68C366.112 112.81 358.702 126.611 358.702 126.611C358.702 126.611 365.428 122.391 374.321 126.84C381.389 130.375 384.353 137.903 385.266 140.983C384.125 138.701 379.223 130.033 371.471 128.778C359.728 126.84 356.764 141.667 356.764 141.667C356.764 141.667 363.49 136.306 371.813 136.648C378.311 136.991 382.871 139.614 385.151 141.667C383.897 141.325 381.275 140.754 378.083 140.64C367.708 140.526 365.542 154.441 365.542 154.441L385.266 142.351C384.353 143.948 382.643 147.37 381.731 149.651C380.363 152.845 381.275 160.03 381.275 160.03C381.275 160.03 384.467 154.555 385.379 151.02C386.292 147.598 386.064 144.062 385.95 142.351L399.288 156.837C399.288 156.837 402.595 148.054 392.448 143.834C391.08 143.264 389.94 142.807 389.028 142.465C391.422 142.807 394.386 143.834 397.464 145.773C403.279 149.537 407.041 154.783 407.041 154.783C407.041 154.783 410.689 144.176 401.797 139.842C398.832 138.473 395.526 138.587 392.676 139.272C394.842 138.017 397.692 137.105 400.998 137.561C409.093 138.587 411.373 144.29 411.373 144.29C411.373 144.29 413.653 131.174 401.911 131.174Z" fill="url(#paint10_linear)"/>
<path d="M299.418 49.7438H295.77V290.975H299.418V49.7438Z" fill="#0C5E59"/>
<path d="M322.995 28.9506C314.089 28.9506 305.693 35.3323 299.841 41.2034C303.785 35.5876 309.255 28.823 313.453 27.419C320.577 25.1216 326.557 26.2703 326.557 26.2703C326.557 26.2703 319.814 16.8255 309.891 21.2927C305.439 23.2072 301.749 29.4612 299.078 35.4599C300.605 29.8441 301.622 23.2071 300.732 17.0807C298.315 1.76479 281.14 0.488464 281.14 0.488464C281.14 0.488464 290.682 13.7623 292.463 29.4612C292.717 31.5033 292.844 33.5454 292.972 35.4599C291.445 26.398 287.883 15.5492 279.232 9.80569C257.733 -4.4892 244.248 20.7821 244.248 20.7821C244.248 20.7821 256.588 13.1241 272.744 21.2927C285.466 27.6743 290.936 41.5863 292.717 47.0745C290.554 42.8626 281.776 27.1637 267.528 24.7387C246.156 21.165 240.686 48.3508 240.686 48.3508C240.686 48.3508 252.898 38.5231 268.037 39.1613C279.741 39.6718 288.264 44.5218 292.463 48.3508C290.3 47.7127 285.339 46.564 279.614 46.564C260.659 46.3087 256.715 71.7077 256.715 71.7077L292.717 49.6271C291.19 52.5627 288.01 58.6891 286.229 63.0286C283.812 68.8997 285.339 81.9183 285.339 81.9183C285.339 81.9183 291.19 71.9629 292.844 65.4537C294.498 59.1996 294.116 52.6903 293.862 49.6271L318.288 76.0472C318.288 76.0472 324.267 59.9654 305.948 52.1798C303.53 51.1587 301.368 50.2653 299.714 49.6271C304.167 50.2653 309.51 52.0522 314.98 55.6259C325.666 62.5181 332.409 71.9629 332.409 71.9629C332.409 71.9629 339.024 52.4351 322.74 44.7771C317.397 42.2245 311.291 42.6074 306.075 43.7561C310.019 41.4587 315.107 39.7994 321.341 40.5652C336.098 42.3521 340.169 52.9456 340.169 52.9456C340.169 52.9456 344.367 28.823 322.995 28.9506Z" fill="url(#paint11_linear)"/>
<g clip-path="url(#clip0)">
<path d="M615 242.179H488.915V295.845H615V242.179Z" fill="#F9F8EF"/>
<path fill-rule="evenodd" clip-rule="evenodd" d="M552.658 228.19V228.313C553.658 225.515 555.661 221.061 559.032 214.416C565.717 201.698 573.179 191.926 573.179 191.926C573.179 191.926 569.914 202.783 563.229 215.502C557.317 226.887 554.08 231.479 552.658 232.174V232.823C554.371 230.563 558.142 226.686 564.784 220.62C575.822 210.693 586.705 203.559 586.705 203.559C586.705 203.559 579.709 212.71 568.671 222.792C562.202 228.618 557.914 232.113 555.236 233.906C557.962 232.215 562.2 229.897 568.36 226.824C582.041 220 594.479 215.812 594.479 215.812C594.479 215.812 584.84 222.792 571.158 229.616C560.738 234.932 555.098 237.189 552.658 237.62V238.086C554.851 236.868 560.464 234.912 571.158 231.943C586.239 227.755 599.453 225.894 599.453 225.894C599.453 225.894 587.949 231.012 572.868 235.2C567.952 236.565 564.027 237.567 560.954 238.267C564.067 237.748 568.089 237.187 573.179 236.596C589.192 234.579 602.563 234.734 602.563 234.734C602.563 234.734 589.97 238.147 573.957 240.008C561.062 241.632 554.72 241.847 552.658 241.384V241.714H551.103V241.492C550.816 241.575 550.415 241.645 549.859 241.714H545.351C541.93 241.559 536.8 241.249 529.648 240.318C513.635 238.302 501.042 235.045 501.042 235.045C501.042 235.045 514.412 234.89 530.426 236.906C535.237 237.465 539.093 237.982 542.131 238.457C539.138 237.765 535.379 236.799 530.736 235.51C515.5 231.322 504.151 226.204 504.151 226.204C504.151 226.204 517.366 228.065 532.446 232.253C543.405 235.296 549.027 237.274 551.103 238.485V237.938C548.752 237.543 543.095 235.238 532.447 229.926C518.765 223.102 509.126 216.122 509.126 216.122C509.126 216.122 521.564 220.31 535.245 227.134C541.025 230.018 545.112 232.236 547.847 233.896C545.123 232.021 540.953 228.599 534.934 223.102C523.896 213.02 516.9 203.869 516.9 203.869C516.9 203.869 527.782 210.849 538.821 220.93C543.568 225.266 546.849 228.484 548.96 230.792C547.147 228.439 544.33 223.785 540.22 215.967C533.535 203.249 530.27 192.391 530.27 192.391C530.27 192.391 537.888 202.163 544.418 214.881C548.184 222.216 550.243 226.92 551.103 229.648V228.191C550.267 226.265 549.703 220.703 549.703 209.608C549.703 195.338 551.88 183.706 551.88 183.706C551.88 183.706 554.057 195.338 554.057 209.608C554.057 220.7 553.493 226.263 552.658 228.19ZM551.103 232.732C550.872 232.713 550.57 232.538 550.188 232.186C550.547 232.614 550.851 232.998 551.103 233.342V232.732ZM551.103 235.675C550.723 235.575 550.231 235.36 549.615 235.015C550.212 235.411 550.705 235.765 551.103 236.077V235.675ZM552.658 235.646C553.084 235.321 553.608 234.953 554.238 234.541C553.588 234.928 553.066 235.182 552.658 235.315V235.646ZM551.103 239.882C550.602 239.916 549.895 239.881 548.957 239.767C549.951 240.021 550.654 240.259 551.103 240.478V239.882ZM552.658 240.231C553.241 239.961 554.168 239.663 555.497 239.34C554.231 239.53 553.299 239.604 552.658 239.58V240.231ZM543.485 241.714H514.412C518.921 241.404 524.362 241.249 530.115 241.249C535.711 241.249 540.22 241.404 543.485 241.714ZM560.12 241.714H589.193C584.684 241.404 579.243 241.094 573.49 241.249C567.738 241.404 563.385 241.559 560.12 241.714Z" fill="url(#paint12_linear)"/>
</g>
<path d="M221.06 262.595C218.78 252.102 215.018 242.179 210.001 233.054C209.317 231.8 208.519 230.431 207.721 229.176C201.907 219.482 194.724 210.813 186.402 203.285C185.376 202.259 184.236 201.346 183.096 200.434C174.203 193.02 164.056 186.975 153.112 182.641C151.744 182.071 150.376 181.615 149.007 181.158C138.063 177.28 126.206 175.113 114.007 174.885C113.323 174.885 112.525 174.885 111.841 174.885C111.157 174.885 110.359 174.885 109.675 174.885C97.3622 175.113 85.6194 177.28 74.6747 181.158C73.3066 181.615 71.9386 182.185 70.5705 182.641C59.6258 186.975 49.4791 193.02 40.5866 200.434C39.4465 201.346 38.3064 202.373 37.2804 203.285C28.9578 210.813 21.6614 219.482 15.961 229.176C15.163 230.431 14.4789 231.8 13.6809 233.054C8.66455 242.179 4.90233 252.102 2.62219 262.595C2.28017 264.078 2.05213 265.561 1.71011 267.043C0.570036 273.431 0 279.932 0 286.547H223.568C223.568 279.932 222.998 273.316 221.858 267.043C221.63 265.561 221.402 264.078 221.06 262.595Z" fill="url(#paint13_linear)"/>
<path opacity="0.3" d="M109.676 174.771V286.547H114.008V174.771C113.324 174.771 112.526 174.771 111.842 174.771C111.044 174.771 110.36 174.771 109.676 174.771Z" fill="url(#paint14_linear)"/>
<path opacity="0.3" d="M70.5703 182.641L98.3881 286.661H102.834L74.5606 181.158C73.3065 181.615 71.9384 182.071 70.5703 182.641Z" fill="url(#paint15_linear)"/>
<path opacity="0.3" d="M37.2803 203.285L85.3913 286.547H90.2936L40.5865 200.434C39.4464 201.346 38.3063 202.373 37.2803 203.285Z" fill="url(#paint16_linear)"/>
<path opacity="0.3" d="M13.6807 233.054L67.2641 286.661H73.3065L15.8468 229.176C15.1628 230.431 14.3647 231.8 13.6807 233.054Z" fill="url(#paint17_linear)"/>
<path opacity="0.3" d="M1.70996 267.043L35.5701 286.547H44.2347L2.62204 262.481C2.28002 264.078 2.05198 265.561 1.70996 267.043Z" fill="url(#paint18_linear)"/>
<path opacity="0.3" d="M120.734 286.661H125.181L152.998 182.641C151.63 182.071 150.262 181.615 148.894 181.158L120.734 286.661Z" fill="url(#paint19_linear)"/>
<path opacity="0.3" d="M133.274 286.661H138.291L186.402 203.399C185.376 202.373 184.236 201.461 183.096 200.548L133.274 286.661Z" fill="url(#paint20_linear)"/>
<g opacity="0.3">
<path d="M150.262 286.661H156.304L209.888 233.054C209.204 231.8 208.406 230.431 207.607 229.176L150.262 286.661Z" fill="url(#paint21_linear)"/>
</g>
<path d="M179.447 286.661H188.112L221.972 267.157C221.744 265.675 221.402 264.192 221.06 262.709L179.447 286.661Z" fill="#084F15"/>
<path d="M304.742 271.378C303.26 264.762 300.866 258.375 297.673 252.558C297.217 251.76 296.761 250.961 296.305 250.049C292.657 243.89 288.097 238.415 282.738 233.625C282.054 233.054 281.37 232.37 280.572 231.8C274.872 227.123 268.488 223.245 261.533 220.508C260.735 220.166 259.823 219.824 258.911 219.596C251.956 217.086 244.432 215.718 236.68 215.604C236.223 215.604 235.767 215.604 235.311 215.604C234.855 215.604 234.399 215.604 233.943 215.604C226.191 215.718 218.666 217.2 211.712 219.596C210.8 219.938 210.002 220.166 209.09 220.508C202.135 223.245 195.751 227.123 190.051 231.8C189.367 232.37 188.682 233.054 187.884 233.625C182.526 238.415 177.966 243.89 174.318 250.049C173.862 250.847 173.405 251.646 172.949 252.558C169.757 258.375 167.363 264.648 165.881 271.378C165.653 272.29 165.539 273.316 165.311 274.229C164.627 278.221 164.171 282.441 164.171 286.661H306.224C306.224 282.441 305.882 278.221 305.084 274.229C305.198 273.202 304.97 272.29 304.742 271.378Z" fill="url(#paint22_linear)"/>
<path opacity="0.3" d="M233.942 215.604V286.661H236.679V215.604C236.223 215.604 235.767 215.604 235.31 215.604C234.854 215.604 234.398 215.604 233.942 215.604Z" fill="url(#paint23_linear)"/>
<path opacity="0.3" d="M209.203 220.508L226.874 286.547H229.724L211.825 219.482C210.913 219.938 210.001 220.166 209.203 220.508Z" fill="url(#paint24_linear)"/>
<path opacity="0.3" d="M187.998 233.739L218.552 286.661H221.744L190.164 231.914C189.366 232.484 188.682 233.054 187.998 233.739Z" fill="url(#paint25_linear)"/>
<path opacity="0.3" d="M172.949 252.558L207.037 286.547H210.914L174.431 250.049C173.975 250.961 173.405 251.76 172.949 252.558Z" fill="url(#paint26_linear)"/>
<path opacity="0.3" d="M165.425 274.229L186.972 286.661H192.444L165.995 271.377C165.767 272.29 165.539 273.202 165.425 274.229Z" fill="url(#paint27_linear)"/>
<path opacity="0.3" d="M241.011 286.661H243.861L261.532 220.622C260.734 220.28 259.822 219.938 258.91 219.71L241.011 286.661Z" fill="url(#paint28_linear)"/>
<path opacity="0.3" d="M248.992 286.661H252.184L282.738 233.739C282.054 233.168 281.37 232.484 280.572 231.914L248.992 286.661Z" fill="url(#paint29_linear)"/>
<path opacity="0.3" d="M259.822 286.661H263.698L297.787 252.672C297.331 251.874 296.875 251.075 296.419 250.163L259.822 286.661Z" fill="url(#paint30_linear)"/>
<path opacity="0.3" d="M278.292 286.661H283.764L305.312 274.229C305.198 273.316 304.97 272.29 304.742 271.377L278.292 286.661Z" fill="url(#paint31_linear)"/>
<defs>
<linearGradient id="paint0_linear" x1="398.949" y1="17.5625" x2="398.949" y2="297.313" gradientUnits="userSpaceOnUse">
<stop offset="0.240793" stop-color="#2CA77F"/>
<stop offset="1" stop-color="#1B8877"/>
</linearGradient>
<linearGradient id="paint1_linear" x1="398.949" y1="17.5625" x2="398.949" y2="297.313" gradientUnits="userSpaceOnUse">
<stop offset="0.240793" stop-color="#2CA77F"/>
<stop offset="1" stop-color="#1B8877"/>
</linearGradient>
<linearGradient id="paint2_linear" x1="398.949" y1="17.5625" x2="398.949" y2="297.313" gradientUnits="userSpaceOnUse">
<stop offset="0.240793" stop-color="#2CA77F"/>
<stop offset="1" stop-color="#1B8877"/>
</linearGradient>
<linearGradient id="paint3_linear" x1="405.843" y1="28.7262" x2="405.843" y2="282.866" gradientUnits="userSpaceOnUse">
<stop stop-color="white"/>
<stop offset="1" stop-color="white" stop-opacity="0"/>
</linearGradient>
<linearGradient id="paint4_linear" x1="516.825" y1="97.6789" x2="516.825" y2="291.403" gradientUnits="userSpaceOnUse">
<stop offset="0.422311" stop-color="#2CA77F"/>
<stop offset="1" stop-color="#1B8877"/>
</linearGradient>
<linearGradient id="paint5_linear" x1="516.825" y1="97.6789" x2="516.825" y2="291.403" gradientUnits="userSpaceOnUse">
<stop offset="0.422311" stop-color="#2CA77F"/>
<stop offset="1" stop-color="#1B8877"/>
</linearGradient>
<linearGradient id="paint6_linear" x1="515.839" y1="127.23" x2="515.839" y2="285.493" gradientUnits="userSpaceOnUse">
<stop stop-color="white"/>
<stop offset="1" stop-color="white" stop-opacity="0"/>
</linearGradient>
<linearGradient id="paint7_linear" x1="210.478" y1="46.4569" x2="210.478" y2="338.803" gradientUnits="userSpaceOnUse">
<stop offset="0.422311" stop-color="#2CA77F"/>
<stop offset="1" stop-color="#1B8877"/>
</linearGradient>
<linearGradient id="paint8_linear" x1="210.478" y1="46.4569" x2="210.478" y2="338.803" gradientUnits="userSpaceOnUse">
<stop offset="0.422311" stop-color="#2CA77F"/>
<stop offset="1" stop-color="#1B8877"/>
</linearGradient>
<linearGradient id="paint9_linear" x1="202.269" y1="104.897" x2="202.269" y2="312.254" gradientUnits="userSpaceOnUse">
<stop stop-color="white"/>
<stop offset="1" stop-color="white" stop-opacity="0"/>
</linearGradient>
<linearGradient id="paint10_linear" x1="384.158" y1="101.011" x2="384.158" y2="160.03" gradientUnits="userSpaceOnUse">
<stop stop-color="#D3D86C"/>
<stop offset="1" stop-color="#82A637"/>
</linearGradient>
<linearGradient id="paint11_linear" x1="290.594" y1="-26.123" x2="290.594" y2="81.9183" gradientUnits="userSpaceOnUse">
<stop stop-color="#D3D86C"/>
<stop offset="1" stop-color="#82A637"/>
</linearGradient>
<linearGradient id="paint12_linear" x1="551.88" y1="223.604" x2="551.88" y2="241.714" gradientUnits="userSpaceOnUse">
<stop stop-color="#D3D86C"/>
<stop offset="1" stop-color="#82A637"/>
</linearGradient>
<linearGradient id="paint13_linear" x1="111.784" y1="138.394" x2="111.784" y2="286.547" gradientUnits="userSpaceOnUse">
<stop stop-color="#D3D86C"/>
<stop offset="1" stop-color="#82A637"/>
</linearGradient>
<linearGradient id="paint14_linear" x1="111.842" y1="174.771" x2="111.842" y2="286.547" gradientUnits="userSpaceOnUse">
<stop stop-color="#084F15" stop-opacity="0"/>
<stop offset="1" stop-color="#084F15"/>
</linearGradient>
<linearGradient id="paint15_linear" x1="86.7023" y1="181.158" x2="86.7023" y2="286.661" gradientUnits="userSpaceOnUse">
<stop stop-color="#084F15" stop-opacity="0"/>
<stop offset="1" stop-color="#084F15"/>
</linearGradient>
<linearGradient id="paint16_linear" x1="63.7869" y1="200.434" x2="63.7869" y2="286.547" gradientUnits="userSpaceOnUse">
<stop stop-color="#084F15" stop-opacity="0"/>
<stop offset="1" stop-color="#084F15"/>
</linearGradient>
<linearGradient id="paint17_linear" x1="43.4936" y1="229.176" x2="43.4936" y2="286.661" gradientUnits="userSpaceOnUse">
<stop stop-color="#084F15" stop-opacity="0"/>
<stop offset="1" stop-color="#084F15"/>
</linearGradient>
<linearGradient id="paint18_linear" x1="22.9723" y1="262.481" x2="22.9723" y2="286.547" gradientUnits="userSpaceOnUse">
<stop stop-color="#084F15" stop-opacity="0"/>
<stop offset="1" stop-color="#084F15"/>
</linearGradient>
<linearGradient id="paint19_linear" x1="136.866" y1="181.158" x2="136.866" y2="286.661" gradientUnits="userSpaceOnUse">
<stop stop-color="#084F15" stop-opacity="0"/>
<stop offset="1" stop-color="#084F15"/>
</linearGradient>
<linearGradient id="paint20_linear" x1="159.838" y1="200.548" x2="159.838" y2="286.661" gradientUnits="userSpaceOnUse">
<stop stop-color="#084F15" stop-opacity="0"/>
<stop offset="1" stop-color="#084F15"/>
</linearGradient>
<linearGradient id="paint21_linear" x1="180.075" y1="229.176" x2="180.075" y2="286.661" gradientUnits="userSpaceOnUse">
<stop stop-color="#084F15" stop-opacity="0"/>
<stop offset="1" stop-color="#084F15"/>
</linearGradient>
<linearGradient id="paint22_linear" x1="235.197" y1="192.382" x2="235.197" y2="286.661" gradientUnits="userSpaceOnUse">
<stop stop-color="#D3D86C"/>
<stop offset="1" stop-color="#82A637"/>
</linearGradient>
<linearGradient id="paint23_linear" x1="235.31" y1="215.604" x2="235.31" y2="286.661" gradientUnits="userSpaceOnUse">
<stop stop-color="#084F15" stop-opacity="0"/>
<stop offset="1" stop-color="#084F15"/>
</linearGradient>
<linearGradient id="paint24_linear" x1="219.464" y1="219.482" x2="219.464" y2="286.547" gradientUnits="userSpaceOnUse">
<stop stop-color="#084F15" stop-opacity="0"/>
<stop offset="1" stop-color="#084F15"/>
</linearGradient>
<linearGradient id="paint25_linear" x1="204.871" y1="231.914" x2="204.871" y2="286.661" gradientUnits="userSpaceOnUse">
<stop stop-color="#084F15" stop-opacity="0"/>
<stop offset="1" stop-color="#084F15"/>
</linearGradient>
<linearGradient id="paint26_linear" x1="191.931" y1="250.049" x2="191.931" y2="286.547" gradientUnits="userSpaceOnUse">
<stop stop-color="#084F15" stop-opacity="0"/>
<stop offset="1" stop-color="#084F15"/>
</linearGradient>
<linearGradient id="paint27_linear" x1="178.935" y1="271.377" x2="178.935" y2="286.661" gradientUnits="userSpaceOnUse">
<stop stop-color="#084F15" stop-opacity="0"/>
<stop offset="1" stop-color="#084F15"/>
</linearGradient>
<linearGradient id="paint28_linear" x1="251.271" y1="219.71" x2="251.271" y2="286.661" gradientUnits="userSpaceOnUse">
<stop stop-color="#084F15" stop-opacity="0"/>
<stop offset="1" stop-color="#084F15"/>
</linearGradient>
<linearGradient id="paint29_linear" x1="265.865" y1="231.914" x2="265.865" y2="286.661" gradientUnits="userSpaceOnUse">
<stop stop-color="#084F15" stop-opacity="0"/>
<stop offset="1" stop-color="#084F15"/>
</linearGradient>
<linearGradient id="paint30_linear" x1="278.804" y1="250.163" x2="278.804" y2="286.661" gradientUnits="userSpaceOnUse">
<stop stop-color="#084F15" stop-opacity="0"/>
<stop offset="1" stop-color="#084F15"/>
</linearGradient>
<linearGradient id="paint31_linear" x1="291.802" y1="271.377" x2="291.802" y2="286.661" gradientUnits="userSpaceOnUse">
<stop stop-color="#084F15" stop-opacity="0"/>
<stop offset="1" stop-color="#084F15"/>
</linearGradient>
<clipPath id="clip0">
<rect width="126.085" height="112.294" fill="white" transform="translate(488.915 183.706)"/>
</clipPath>
</defs>
</svg>
