<svg width="203" height="503" viewBox="0 0 203 503" fill="none" xmlns="http://www.w3.org/2000/svg">
<path fill-rule="evenodd" clip-rule="evenodd" d="M94.973 116.912C94.7455 122.601 94.0867 127.643 93.4055 132.856L93.2941 133.71C92.5747 139.227 91.3757 144.745 90.1767 150.263L90.1767 150.263L90.1757 150.267C87.7771 161.306 84.6589 172.105 80.3413 182.903L78.6622 186.983L78.1825 187.943L77.9427 188.423C77.9427 188.522 77.9015 188.58 77.8533 188.648C77.7852 188.745 77.7029 188.861 77.7029 189.143C77.2231 190.342 76.5035 191.542 75.3042 192.742C74.3449 193.942 72.906 194.901 71.467 195.861L71.4663 195.862C70.0271 196.582 68.3482 197.061 66.909 197.301C64.0306 197.541 61.6319 197.062 59.713 196.582C55.8752 195.382 53.2366 193.702 50.5981 191.782C47.96 190.103 45.8017 188.183 43.6433 186.264L43.6421 186.263C35.1722 178.495 28.3176 170.266 21.9468 161.349C17.1546 159.645 13.1789 155.547 13.1789 155.547L18.6539 138.4L13.1795 155.307L0.946289 147.868L4.54429 133.23L18.6964 138.269L18.6962 138.27L28.2904 153.387L28.2355 155.311L28.5306 155.067C30.4495 156.867 32.4284 158.666 34.4072 160.466C36.3861 162.266 38.365 164.066 40.2839 165.865C44.3611 169.465 48.4384 172.584 52.5156 175.703L52.5157 175.703L52.5171 175.704C53.1426 176.121 53.748 176.539 54.345 176.95C55.8081 177.958 57.2203 178.932 58.7535 179.784C60.4335 180.834 62.2973 181.517 63.7011 181.992L64.0306 181.223L65.4697 177.624C68.8278 168.025 71.4663 157.946 73.3852 147.628C73.9006 144.92 74.3469 142.144 74.7983 139.335C75.1871 136.916 75.5798 134.473 76.0238 132.03C76.7434 126.99 77.463 121.471 77.7029 116.672L94.973 116.912ZM64.6583 182.277C65.0692 182.334 65.1797 182.183 64.9899 182.183C64.9239 182.183 64.8033 182.22 64.6583 182.277Z" fill="url(#paint0_linear)"/>
<path d="M86.2015 94.7638C79.0056 96.6835 73.7285 126.68 73.7285 126.68L93.8772 140.358C93.8772 140.358 113.066 110.122 107.55 101.963C101.553 93.5639 96.7556 91.8841 86.2015 94.7638Z" fill="#FFEDBA"/>
<path opacity="0.3" d="M86.6819 101.483L81.165 131.719L92.4385 139.398L86.6819 101.483Z" fill="#ED6B57"/>
<path d="M128.045 474.756H104.341L103.06 434.562H126.443L128.045 474.756Z" fill="#FFC3BD"/>
<path d="M104.088 472.583H128.031C128.897 472.583 129.474 473.178 129.762 474.07L132.358 493.701C132.647 495.784 130.916 497.568 128.897 497.568C120.531 497.568 116.492 496.973 106.108 496.973C99.7613 496.973 86.2033 497.568 77.2607 497.568C68.6067 497.568 67.7413 488.348 71.4914 487.753C88.2225 484.183 94.8573 478.829 100.338 474.07C101.492 473.178 102.934 472.583 104.088 472.583Z" fill="#14365B"/>
<path d="M103.06 435.649L103.689 450.857H126.958L126.015 435.649H103.06Z" fill="#F29994"/>
<path d="M100.886 444.635C100.886 444.635 86.877 320.57 85.6776 264.418C85.2891 246.227 87.7388 220.966 90.0229 203.721H128.044L125.541 264.418C123.382 319.611 128.044 444.635 128.044 444.635H100.886Z" fill="url(#paint1_linear)"/>
<path d="M91.1352 94.2461C91.1352 94.2461 88.0788 103.935 87.3331 112.426C86.5108 121.788 77.5308 138.543 82.7399 148.32C94.9118 164.071 88.8472 188.149 91.1352 202.341C119.679 202.341 149.182 202.341 163.095 202.341C161.895 173.065 161.895 155.067 175.807 94.8345C175.807 94.8345 160.696 91.475 145.345 90.7551C133.351 90.2751 123.277 89.7952 112.723 90.7551C98.571 91.9549 91.1352 94.2461 91.1352 94.2461Z" fill="#FFEDBA"/>
<path d="M141.987 53.7998C139.828 64.3584 137.909 83.556 145.105 90.5151C145.105 90.5151 142.226 101.074 122.797 101.074C101.21 101.074 112.483 90.5151 112.483 90.5151C124.237 87.6354 123.997 78.9965 121.838 70.8375L141.987 53.7998Z" fill="url(#paint2_linear)"/>
<path d="M133.831 60.7588L122.078 70.8375C122.558 72.7573 123.037 74.6771 123.037 76.5969C127.595 75.877 133.592 71.0775 134.071 66.2781C134.311 64.1184 134.311 61.9587 133.831 60.7588Z" fill="#F29994"/>
<path d="M105.413 45.1494C97.7157 33.6031 100.144 22.9272 105.413 16.9708H126.032C126.719 26.1346 128.094 45.4243 128.094 49.2731C128.094 53.1219 147.796 46.524 145.963 50.6477C141.381 49.7313 113.111 56.6958 105.413 45.1494Z" fill="#0F264C"/>
<path d="M153.021 34.6022C148.943 51.64 147.504 59.079 137.19 66.2781C121.599 77.3167 101.69 68.4378 100.491 50.4401C99.5314 34.3621 106.487 8.92535 124.477 5.08583C142.707 1.48628 157.339 17.5643 153.021 34.6022Z" fill="url(#paint3_linear)"/>
<path d="M132.025 446.512H98.0673L95.4551 435.7L133.476 434.562L132.025 446.512Z" fill="#4B2A2A"/>
<path d="M122.079 236.177C114.105 252.131 116.976 277.302 118.268 298.774C119.853 325.099 121.282 347.504 124.717 360.721C127.835 324.485 133.352 280.091 137.43 247.695C135.031 229.217 130.234 219.859 122.079 236.177Z" fill="#EE4D47" fill-opacity="0.29" style="mix-blend-mode:multiply"/>
<path d="M194.853 442.166L172.041 349.83V259.123L165.318 204.265H124.581C119.801 234.681 130.399 317.965 138.908 361.236L165.318 442.166H194.853Z" fill="url(#paint4_linear)"/>
<path d="M178.015 475.299L171.497 449.227H194.31L198.112 475.299H178.015Z" fill="#FFC3BD"/>
<path d="M169.383 486.588L177.227 474.756H197.957C200.519 476.291 201.684 485.895 202.442 492.341C202.737 494.85 201.175 497.254 198.746 497.951L181.149 503H155.691C153.633 503 151.976 501.311 152.015 499.253C152.015 491.904 164.126 487.2 169.383 486.588Z" fill="#14365B"/>
<path fill-rule="evenodd" clip-rule="evenodd" d="M194.864 453.03L194.31 449.227H171.497L172.448 453.03H194.864Z" fill="#F29994"/>
<path d="M199.376 449.771H165.419L162.807 438.959L200.827 437.821L199.376 449.771Z" fill="#4B2A2A"/>
<circle r="20.6185" transform="matrix(1 0 0 -1 163.146 30.0292)" fill="#0F264C"/>
<path d="M125.965 34.581C126.219 33.1455 125.685 31.8507 124.772 31.6889C123.859 31.5271 122.913 32.5596 122.658 33.9951C122.404 35.4306 122.938 36.7256 123.852 36.8874C124.765 37.0492 125.711 36.0165 125.965 34.581Z" fill="#0F264C"/>
<path d="M110.084 31.9625C109.844 33.4024 108.885 34.3622 107.925 34.1223C106.966 33.8823 106.486 32.6824 106.726 31.2426C106.966 29.8027 107.926 28.8428 108.885 29.0828C109.844 29.3228 110.324 30.5227 110.084 31.9625Z" fill="#0F264C"/>
<path d="M109.365 29.3228L106.247 27.643C106.007 27.643 107.446 30.5227 109.365 29.3228Z" fill="#0F264C"/>
<path d="M113.922 35.0821C113.922 35.0821 110.564 40.6013 107.206 43.241C108.645 45.4007 112.003 45.1608 112.003 45.1608L113.922 35.0821Z" fill="#ED847E"/>
<path d="M120.124 53.2676C119.065 53.2676 118.006 53.2677 116.594 52.9229C116.241 52.9229 115.888 52.578 116.241 52.2331C116.241 51.8882 116.594 51.5434 116.947 51.8882C126.124 53.6125 131.419 48.0947 131.419 48.0947C131.772 47.7499 132.125 47.7499 132.125 48.0947C132.478 48.4396 132.478 48.7845 132.125 48.7845C132.125 48.7845 127.889 53.2676 120.124 53.2676Z" fill="#0F264C"/>
<path d="M162.39 19.3551C170.384 38.4109 153.964 48.1567 144.754 50.6477L153.572 33.3667L151.808 24.0257C143.775 19.0438 129.823 8.89315 138.288 8.14587C148.869 7.21176 159.45 12.3493 162.39 19.3551Z" fill="#D3D86C"/>
<path d="M125.436 3.88609C117.52 8.4455 136.949 51.4 151.341 45.4008C165.733 39.4016 160.936 15.4047 153.98 9.40542C146.784 3.16622 136.469 -2.59308 125.436 3.88609Z" fill="#0F264C"/>
<path d="M159.708 19.0326C169.055 47.0738 149.857 61.4151 139.09 65.0806L149.399 39.6511L147.337 25.9055C137.944 18.5744 121.633 3.63749 131.529 2.53783C143.901 1.16326 156.272 8.72338 159.708 19.0326Z" fill="#0F264C"/>
<path d="M120.879 1.72635C120.879 1.72635 111.284 3.16617 105.048 14.9247C98.5712 26.9232 135.271 3.40614 129.993 1.72635C124.956 0.0465586 120.879 1.72635 120.879 1.72635Z" fill="#0F264C"/>
<path d="M153.741 47.5605C152.301 50.9201 149.663 53.3197 146.785 54.5196C142.707 56.1994 140.068 52.5998 140.788 48.2804C141.508 44.4409 144.386 39.1616 148.943 39.1616C153.261 39.1616 155.42 43.481 153.741 47.5605Z" fill="url(#paint5_linear)"/>
<path fill-rule="evenodd" clip-rule="evenodd" d="M183.482 113.552C187.56 123.151 190.678 132.75 193.557 142.588C196.435 152.427 198.834 162.506 200.033 173.065C200.273 175.704 200.513 178.344 200.753 181.224V183.383C200.753 183.418 200.757 183.486 200.764 183.584C200.806 184.172 200.924 185.817 200.513 187.463C200.273 188.423 199.793 189.623 199.074 190.582C198.354 191.782 197.395 192.742 196.435 193.462C194.276 194.902 192.357 195.382 190.918 195.622C189.924 195.787 189.045 195.724 188.28 195.669H188.28C187.937 195.645 187.617 195.622 187.32 195.622C186.87 195.509 186.42 195.449 185.995 195.393L185.995 195.393C185.514 195.329 185.064 195.269 184.682 195.142C183.003 194.662 181.563 194.182 180.364 193.702C177.726 192.502 175.327 191.302 172.928 190.102C163.813 184.823 155.658 178.824 147.983 172.105L148.104 171.926C144.843 170.266 142.265 167.163 140.833 165.147L129.753 152.907L136.949 139.469L149.182 147.868L149.182 147.868L155.037 165.677L156.26 166.29C163.864 170.107 171.606 173.993 179.165 177.144C180.672 177.814 182.18 178.368 183.606 178.804C183.467 177.913 183.337 177.03 183.243 176.184C182.523 171.626 181.324 167.067 180.125 162.509L180.124 162.506C179.525 160.226 178.865 157.887 178.205 155.547L178.205 155.547C177.546 153.207 176.886 150.867 176.286 148.588C173.408 139.469 170.05 130.11 166.692 121.231L183.482 113.552Z" fill="#FFC3BD"/>
<path d="M130.473 25.4833C130.233 25.4833 129.993 25.4833 129.753 25.2434C127.115 22.6036 124.236 23.0836 123.997 23.0836C123.517 23.0836 123.037 22.8436 123.037 22.3637C123.037 21.8837 123.277 21.4038 123.757 21.4038C123.997 21.4038 127.834 20.6838 130.953 24.0435C131.192 24.2835 131.192 25.0034 130.953 25.2434C130.713 25.4833 130.713 25.4833 130.473 25.4833Z" fill="#0F264C"/>
<path d="M104.328 23.3235C104.088 23.3235 103.848 23.3235 103.848 23.0836C103.608 22.8436 103.608 22.1237 103.848 21.8837C106.966 18.5242 110.804 19.2441 111.044 19.2441C111.524 19.2441 111.763 19.7241 111.763 20.204C111.763 20.6839 111.284 20.9239 110.804 20.9239C110.564 20.9239 107.686 20.4439 105.047 23.0836C104.807 23.3235 104.567 23.3235 104.328 23.3235Z" fill="#0F264C"/>
<path d="M175.807 94.5946C183.003 96.7543 191.639 121.711 191.639 121.711L163.574 141.629C163.574 141.629 153.26 120.991 156.378 111.632C159.736 102.034 167.652 92.1949 175.807 94.5946Z" fill="#FFEDBA"/>
<path d="M92.4324 474.756C89.4569 474.756 86.4814 474.322 84.781 472.585C83.9309 471.716 83.5059 470.414 83.5059 468.677C83.5059 467.808 83.9309 466.94 84.781 466.506C88.6068 464.335 100.934 470.848 102.634 471.716C103.06 471.716 103.059 472.151 103.059 472.585C103.059 473.019 102.634 473.019 102.634 473.019C99.6589 474.321 95.8331 474.756 92.4324 474.756ZM86.9064 468.243C86.4814 468.243 86.0563 468.243 85.6313 468.677C85.2062 468.677 85.206 469.111 85.206 469.545C85.206 470.414 85.2061 471.282 86.0562 472.15C87.7566 473.887 93.2825 474.321 100.084 473.019C95.4079 470.414 89.882 468.243 86.9064 468.243Z" fill="#9FC6FF"/>
<path d="M102.206 473.669C97.9452 472.089 90.7012 465.769 91.1274 462.609C91.1274 461.819 91.9797 461.029 94.1103 460.634C95.8148 460.634 97.0932 461.029 98.3715 461.819C102.207 464.979 103.059 472.879 103.059 472.879C103.059 473.274 103.059 473.274 102.633 473.669H102.206ZM94.5363 461.819H94.1103C92.8319 461.819 92.8317 462.609 92.8317 462.609C92.4056 464.584 97.5191 469.719 101.354 471.694C100.928 469.324 100.076 464.584 97.5192 462.609C96.667 462.214 95.8147 461.819 94.5363 461.819Z" fill="#9FC6FF"/>
<path d="M172.406 477.92C170.074 476.207 167.992 474.153 167.66 471.813C167.494 470.643 167.911 469.377 168.911 468.016C169.411 467.335 170.244 466.899 171.161 467.049C175.409 467.55 181.319 479.754 182.152 481.414C182.485 481.658 182.235 481.999 181.985 482.339C181.735 482.679 181.402 482.434 181.402 482.434C178.32 481.742 175.071 479.879 172.406 477.92ZM171.826 469.634C171.493 469.389 171.16 469.144 170.577 469.24C170.244 468.995 169.993 469.335 169.743 469.676C169.243 470.356 168.743 471.037 168.91 472.207C169.242 474.547 173.323 478.07 179.403 480.965C177.239 476.231 174.158 471.347 171.826 469.634Z" fill="#9FC6FF"/>
<path d="M180.692 482.698C178.262 479.006 176.225 469.881 178.379 467.65C178.834 467.031 179.957 466.902 181.854 467.82C183.19 468.801 183.964 469.847 184.511 471.202C185.697 475.887 181.815 482.57 181.815 482.57C181.587 482.879 181.587 482.879 181.026 482.944L180.692 482.698ZM181.505 468.994L181.171 468.748C180.169 468.012 179.714 468.631 179.714 468.631C178.243 469.934 179.293 476.903 181.161 480.659C182.192 478.557 184.254 474.351 183.388 471.331C182.948 470.53 182.507 469.73 181.505 468.994Z" fill="#9FC6FF"/>
<path d="M164.054 198.021L165.973 204.5C166.213 204.98 165.733 205.46 164.773 205.46H90.6552C89.9356 205.46 89.4559 205.22 89.4559 204.74L88.7363 198.261C88.7363 197.781 89.2161 197.541 89.9357 197.541H162.855C163.574 197.302 164.054 197.541 164.054 198.021Z" fill="#F18069"/>
<path d="M154.459 206.18H156.378C156.858 206.18 157.098 205.94 157.098 205.7L156.138 197.301C156.138 197.061 155.659 196.821 155.419 196.821H153.5C153.02 196.821 152.78 197.061 152.78 197.301L153.74 205.7C153.74 205.94 153.98 206.18 154.459 206.18Z" fill="#6A2828"/>
<path d="M96.173 206.18H98.0921C98.5718 206.18 98.8116 205.94 98.8116 205.7L97.8521 197.301C97.8521 197.061 97.3724 196.821 97.1326 196.821H95.2137C94.734 196.821 94.4941 197.061 94.4941 197.301L95.4535 205.7C95.4535 205.94 95.9332 206.18 96.173 206.18Z" fill="#6A2828"/>
<path d="M125.196 206.18H127.115C127.594 206.18 127.834 205.94 127.834 205.7L126.875 197.301C126.875 197.061 126.395 196.821 126.155 196.821H124.236C123.756 196.821 123.517 197.061 123.517 197.301L124.476 205.7C124.476 205.94 124.956 206.18 125.196 206.18Z" fill="#6A2828"/>
<path d="M125.196 31.9625L122.078 30.2826C122.078 30.5226 123.277 33.4023 125.196 31.9625Z" fill="#0F264C"/>
<defs>
<linearGradient id="paint0_linear" x1="99.2069" y1="187.586" x2="93.8734" y2="132.621" gradientUnits="userSpaceOnUse">
<stop stop-color="#FFB3B6"/>
<stop offset="1" stop-color="#FFC8C1"/>
</linearGradient>
<linearGradient id="paint1_linear" x1="104.717" y1="151.301" x2="104.717" y2="451.157" gradientUnits="userSpaceOnUse">
<stop stop-color="#F4A984"/>
<stop offset="1" stop-color="#EE4D47"/>
</linearGradient>
<linearGradient id="paint2_linear" x1="130.217" y1="95.0906" x2="130.437" y2="31.5083" gradientUnits="userSpaceOnUse">
<stop stop-color="#FFB3B6"/>
<stop offset="1" stop-color="#FFC8C1"/>
</linearGradient>
<linearGradient id="paint3_linear" x1="156.187" y1="63.0613" x2="149.862" y2="18.1953" gradientUnits="userSpaceOnUse">
<stop stop-color="#FFB3B6"/>
<stop offset="1" stop-color="#FFC8C1"/>
</linearGradient>
<linearGradient id="paint4_linear" x1="160.26" y1="153.09" x2="160.26" y2="445.818" gradientUnits="userSpaceOnUse">
<stop stop-color="#F4A984"/>
<stop offset="1" stop-color="#EE4D47"/>
</linearGradient>
<linearGradient id="paint5_linear" x1="154.925" y1="53.0286" x2="153.53" y2="42.3617" gradientUnits="userSpaceOnUse">
<stop stop-color="#FFB3B6"/>
<stop offset="1" stop-color="#FFC8C1"/>
</linearGradient>
</defs>
</svg>
