<svg width="743" height="684" viewBox="0 0 743 684" fill="none" xmlns="http://www.w3.org/2000/svg">
    <g filter="url(#filter0_d)">
        <path d="M334 146.052C250.128 88.7814 116.674 153.688 126 290.234C141.902 523.052 304.136 550.096 445.999 523.052C631.635 487.664 674.464 275.298 503.054 290.234C365.493 302.221 438.84 217.64 334 146.052Z"
              fill="#FCDDD4"/>
        <mask id="mask0" mask-type="alpha" maskUnits="userSpaceOnUse" x="128" y="123" width="503" height="407">
            <path d="M345.249 143.757C258.915 86.9885 120.459 152.915 129.153 289.591C143.978 522.628 311.556 548.582 458.445 520.513C650.657 483.783 696.424 270.818 519.065 286.968C376.73 299.929 453.166 214.717 345.249 143.757Z"
                  fill="#FCDDD4"/>
        </mask>
        <g mask="url(#mask0)">
            <path opacity="0.7"
                  d="M104.274 160.485C132.931 148.144 200.452 130.184 241.276 157.071C292.306 190.681 133.407 235.643 182.034 261.149C230.66 286.654 322.614 177.495 357.733 195.915C392.852 214.336 267.568 264.955 303.74 290.771C339.911 316.587 447.319 201.847 491.293 223.201C535.266 244.555 385.227 307.851 455.465 344.692"
                  stroke="url(#paint0_linear)" stroke-width="2"/>
            <path d="M277.027 586.695C277.275 551.108 277.398 533.315 286.132 520.535C289.711 515.299 294.237 510.773 299.474 507.196C312.256 498.465 330.049 498.345 365.637 498.106L605.448 496.492L604.683 606.649L276.874 608.854L277.027 586.695Z"
                  fill="#F58A6B"/>
        </g>
        <path fill-rule="evenodd" clip-rule="evenodd"
              d="M158.367 304.676C160.004 306.024 161.284 307.467 162.293 308.854L164.925 305.343C163.677 304.019 162.461 302.814 161.007 301.673L158.367 304.676Z"
              fill="#3E1A0B"/>
        <path fill-rule="evenodd" clip-rule="evenodd"
              d="M166.9 310.809C165.42 308.144 162.117 307.243 159.483 308.842L155.993 311.052C153.359 312.651 152.522 316.192 153.883 318.889C155.362 321.554 158.666 322.455 161.299 320.856L164.79 318.645C167.423 317.046 168.412 313.593 166.9 310.809Z"
              fill="#F69E9F"/>
        <path fill-rule="evenodd" clip-rule="evenodd"
              d="M308.099 199.245L246.271 209.434L242.978 189.524C242.65 187.826 241.045 186.598 239.196 186.838L190.186 194.868C188.488 195.196 187.259 196.801 187.499 198.65L190.793 218.559L132.513 228.18C131.052 228.444 129.911 229.898 130.174 231.358L170.066 474.512C170.329 475.972 171.783 477.113 173.244 476.849L348.862 448.034C350.322 447.77 351.464 446.316 351.2 444.856L311.19 201.734C311.132 200.091 309.591 199.101 308.099 199.245Z"
              fill="url(#paint1_linear)"/>
        <path fill-rule="evenodd" clip-rule="evenodd"
              d="M299.519 230.048L145.187 255.456C143.846 255.688 142.911 256.959 143.142 258.3L177.701 468.697C177.933 470.038 179.204 470.973 180.546 470.742L334.877 445.333C336.218 445.102 337.154 443.83 336.922 442.489L302.363 232.092C302.131 230.751 300.86 229.816 299.519 230.048Z"
              fill="#F36F49"/>
        <path fill-rule="evenodd" clip-rule="evenodd"
              d="M299.044 222.591L148.466 247.249C147.125 247.48 146.309 248.72 146.54 250.061L180.268 455.451C180.5 456.792 181.739 457.608 183.08 457.376L333.745 432.568C335.086 432.336 335.902 431.097 335.671 429.755L301.943 224.365C301.624 223.175 300.385 222.359 299.044 222.591Z"
              fill="#FAFBFC"/>
        <path opacity="0.8"
              d="M293.514 231.472L156.532 254.017C155.786 254.089 155.135 254.519 154.787 255.122C154.438 255.726 154.241 256.417 154.313 257.163L185.442 446.666C185.514 447.412 185.944 448.062 186.548 448.411C187.151 448.759 187.842 448.957 188.588 448.884L325.602 426.458C326.348 426.386 326.998 425.957 327.347 425.353C327.695 424.749 327.893 424.059 327.821 423.313L296.66 233.69C296.587 232.944 296.158 232.294 295.554 231.945C294.951 231.597 294.26 231.399 293.514 231.472ZM326.718 423.481C326.845 423.957 326.703 424.378 326.409 424.711C326.116 425.045 325.791 425.26 325.315 425.387L188.452 447.9C187.976 448.028 187.555 447.886 187.221 447.592C186.888 447.299 186.673 446.974 186.545 446.498L155.384 256.876C155.257 256.399 155.399 255.979 155.692 255.645C155.986 255.311 156.311 255.096 156.787 254.969L293.769 232.424C294.245 232.296 294.666 232.439 295 232.732C295.333 233.025 295.548 233.35 295.676 233.826L326.718 423.481Z"
              fill="#F58A6B"/>
        <path fill-rule="evenodd" clip-rule="evenodd"
              d="M215.471 196.384C212.551 196.912 210.593 199.605 211.12 202.525C211.648 205.445 214.341 207.402 217.262 206.875C220.182 206.347 222.14 203.654 221.613 200.734C221.117 197.933 218.392 195.857 215.471 196.384Z"
              fill="#FAFBFC"/>
        <path fill-rule="evenodd" clip-rule="evenodd"
              d="M256.594 204.627L179.591 217.224C177.892 217.551 176.664 219.156 176.904 221.005L180.493 242.494C180.82 244.192 182.425 245.42 184.275 245.18L261.278 232.583C262.976 232.256 264.205 230.651 263.964 228.802L260.463 207.162C260.016 205.496 258.292 204.3 256.594 204.627Z"
              fill="#F58A6B"/>
        <path opacity="0.8" fill-rule="evenodd" clip-rule="evenodd"
              d="M215.151 214.712L185.817 219.51C184.475 219.742 183.54 221.013 183.772 222.354L186.561 238.955C186.793 240.296 188.064 241.231 189.406 240.999L218.74 236.2C220.082 235.968 221.017 234.697 220.785 233.356L217.996 216.756C217.764 215.415 216.493 214.48 215.151 214.712Z"
              fill="#F36F49"/>
        <path opacity="0.2" d="M211.061 269.02L211.4 271.087L292.024 257.834L291.684 255.767L211.061 269.02Z"
              fill="#EE4D47"/>
        <path opacity="0.2" d="M211.91 274.251L212.25 276.318L292.873 263.065L292.533 260.998L211.91 274.251Z"
              fill="#EE4D47"/>
        <path opacity="0.2" d="M252.971 272.704L253.311 274.771L293.683 268.134L293.343 266.067L252.971 272.704Z"
              fill="#EE4D47"/>
        <path opacity="0.2" d="M212.757 279.342L213.097 281.409L250.915 275.192L250.576 273.125L212.757 279.342Z"
              fill="#EE4D47"/>
        <path opacity="0.2" d="M216.621 303.205L216.961 305.272L297.584 292.019L297.244 289.952L216.621 303.205Z"
              fill="#EE4D47"/>
        <path opacity="0.2" d="M217.471 308.437L217.811 310.504L298.434 297.25L298.094 295.184L217.471 308.437Z"
              fill="#EE4D47"/>
        <path opacity="0.2" d="M258.655 306.87L258.995 308.937L299.367 302.3L299.028 300.233L258.655 306.87Z"
              fill="#EE4D47"/>
        <path opacity="0.2" d="M218.32 313.528L218.659 315.595L256.478 309.378L256.138 307.311L218.32 313.528Z"
              fill="#EE4D47"/>
        <path opacity="0.2" d="M221.678 333.865L222.018 335.932L302.641 322.679L302.301 320.612L221.678 333.865Z"
              fill="#EE4D47"/>
        <path opacity="0.2" d="M222.528 339.096L222.867 341.163L303.49 327.91L303.151 325.843L222.528 339.096Z"
              fill="#EE4D47"/>
        <path opacity="0.2" d="M263.711 337.529L264.051 339.596L304.423 332.96L304.083 330.893L263.711 337.529Z"
              fill="#EE4D47"/>
        <path opacity="0.2" d="M223.374 344.188L223.714 346.255L261.533 340.038L261.193 337.971L223.374 344.188Z"
              fill="#EE4D47"/>
        <path opacity="0.2" d="M226.848 365.445L227.188 367.512L307.811 354.259L307.471 352.192L226.848 365.445Z"
              fill="#EE4D47"/>
        <path opacity="0.2" d="M227.719 370.798L228.059 372.865L308.682 359.612L308.342 357.545L227.719 370.798Z"
              fill="#EE4D47"/>
        <path opacity="0.2" d="M268.901 369.231L269.24 371.298L309.613 364.662L309.273 362.595L268.901 369.231Z"
              fill="#EE4D47"/>
        <path opacity="0.2" d="M228.565 375.89L228.904 377.957L266.723 371.74L266.383 369.673L228.565 375.89Z"
              fill="#EE4D47"/>
        <path opacity="0.2" d="M231.939 396.823L232.278 398.89L312.901 385.636L312.562 383.569L231.939 396.823Z"
              fill="#EE4D47"/>
        <path opacity="0.2" d="M232.788 402.054L233.128 404.121L313.751 390.868L313.411 388.801L232.788 402.054Z"
              fill="#EE4D47"/>
        <path opacity="0.2" d="M273.972 400.487L274.312 402.553L314.684 395.917L314.344 393.85L273.972 400.487Z"
              fill="#EE4D47"/>
        <path opacity="0.2" d="M233.758 407.126L234.098 409.193L271.916 402.976L271.577 400.909L233.758 407.126Z"
              fill="#EE4D47"/>
        <path opacity="0.2"
              d="M173.021 269.37L172.036 269.506L172.172 270.49L175.202 288.94L175.338 289.924L176.322 289.788L196.117 286.525L197.101 286.389L196.965 285.405L193.935 266.955L193.799 265.971L192.815 266.107L173.021 269.37ZM194.892 284.812L176.915 287.716L174.126 271.115L191.984 268.243L194.892 284.812Z"
              fill="#EE4D47"/>
        <path opacity="0.2"
              d="M178.657 304.214L177.673 304.35L177.928 305.302L180.958 323.752L181.094 324.736L182.078 324.6L201.873 321.337L202.857 321.201L202.721 320.217L199.691 301.767L199.555 300.783L198.571 300.919L178.657 304.214ZM200.529 319.656L182.671 322.528L179.882 305.927L197.74 303.055L200.529 319.656Z"
              fill="#EE4D47"/>
        <path opacity="0.2"
              d="M184.149 337.566L183.165 337.702L183.301 338.686L186.331 357.136L186.467 358.12L187.451 357.984L207.246 354.721L208.23 354.585L208.094 353.601L205.064 335.151L204.928 334.167L203.944 334.303L184.149 337.566ZM206.021 353.008L188.163 355.88L185.374 339.279L203.232 336.407L206.021 353.008Z"
              fill="#EE4D47"/>
        <path opacity="0.2"
              d="M189.705 371.157L188.721 371.293L188.857 372.277L191.919 390.845L192.055 391.829L193.039 391.693L212.833 388.43L213.818 388.294L213.681 387.31L210.652 368.86L210.516 367.876L209.531 368.013L189.705 371.157ZM211.577 386.598L193.719 389.47L190.93 372.869L208.788 369.998L211.577 386.598Z"
              fill="#EE4D47"/>
        <path opacity="0.2"
              d="M195.062 403.525L194.077 403.661L194.213 404.645L197.243 423.094L197.379 424.078L198.364 423.942L218.158 420.679L219.142 420.543L219.006 419.559L215.976 401.11L215.84 400.126L214.856 400.262L195.062 403.525ZM216.902 418.847L199.044 421.719L196.254 405.118L214.112 402.247L216.902 418.847Z"
              fill="#EE4D47"/>
        <path d="M185.335 278.189L175.009 272.026L173.844 273.869L185.195 280.522L186.101 281.045L186.624 280.139L200.593 257.518L198.782 256.472L185.335 278.189Z"
              fill="#EE4D47"/>
        <path d="M191.228 313.985L180.901 307.823L179.736 309.665L191.088 316.318L191.961 316.722L192.516 315.936L206.453 293.195L204.642 292.149L191.228 313.985Z"
              fill="#F58A6B"/>
        <path d="M202.507 382.268L192.061 376.138L191.015 377.949L202.248 384.634L203.153 385.157L203.676 384.251L217.765 361.597L215.922 360.433L202.507 382.268Z"
              fill="#F58A6B"/>
        <path fill-rule="evenodd" clip-rule="evenodd"
              d="M173.106 488.239C172.034 488.526 171.424 489.583 171.711 490.654C171.998 491.725 173.055 492.335 174.126 492.048C175.198 491.761 175.808 490.704 175.521 489.633C175.234 488.562 174.177 487.952 173.106 488.239Z"
              fill="#FAFBFC"/>
        <path d="M202.496 479.839C203.241 479.504 203.573 478.629 203.239 477.884C202.904 477.139 202.029 476.807 201.284 477.141C200.539 477.476 200.206 478.351 200.541 479.096C200.875 479.841 201.751 480.173 202.496 479.839Z"
              fill="#FAFBFC"/>
        <path d="M243.28 467.777C243.872 467.619 244.223 467.011 244.064 466.419C243.906 465.828 243.298 465.477 242.706 465.635C242.114 465.794 241.763 466.402 241.922 466.993C242.08 467.585 242.688 467.936 243.28 467.777Z"
              fill="#FAFBFC"/>
        <path fill-rule="evenodd" clip-rule="evenodd"
              d="M264.495 463.624C263.542 463.879 263.019 464.784 263.275 465.736C263.53 466.688 264.435 467.211 265.388 466.956C266.34 466.701 266.863 465.795 266.608 464.843C266.384 464.01 265.447 463.368 264.495 463.624Z"
              fill="#FAFBFC"/>
        <path fill-rule="evenodd" clip-rule="evenodd"
              d="M296.748 456.385C296.39 456.48 296.216 456.782 296.312 457.139C296.407 457.496 296.709 457.671 297.066 457.575C297.424 457.479 297.598 457.177 297.502 456.82C297.526 456.431 297.105 456.289 296.748 456.385Z"
              fill="#FAFBFC"/>
        <path fill-rule="evenodd" clip-rule="evenodd"
              d="M363.373 434.578C362.778 434.738 362.548 435.309 362.676 435.785C362.835 436.381 363.407 436.61 363.883 436.482C364.479 436.323 364.708 435.751 364.581 435.275C364.572 434.767 363.968 434.419 363.373 434.578Z"
              fill="#FAFBFC"/>
        <path d="M474.479 243.052C474.479 232.006 465.524 223.052 454.479 223.052H378.999C367.954 223.052 358.999 232.006 358.999 243.052V253.454C358.999 264.5 367.954 273.454 378.999 273.454H474.479V243.052Z"
              fill="white"/>
        <circle r="3.82804" transform="matrix(-1 0 0 1 448.32 248.572)" fill="#F4A984"/>
        <circle r="3.82804" transform="matrix(-1 0 0 1 432.369 248.572)" fill="#F4A984"/>
        <circle r="3.82804" transform="matrix(-1 0 0 1 416.419 248.572)" fill="#F4A984"/>
        <circle r="3.82804" transform="matrix(-1 0 0 1 400.469 248.572)" fill="#F4A984"/>
        <circle r="3.82804" transform="matrix(-1 0 0 1 384.519 248.572)" fill="#F4A984"/>
        <path d="M325 410.552C281.4 410.552 303.5 347.552 320 316.052C328.833 309.385 350.5 295.952 366.5 295.552C382.5 295.152 392.5 315.052 395.5 325.052C393.667 325.219 391.8 332.852 399 362.052C406.2 391.252 402.667 406.552 400 410.552H325Z"
              fill="#402B2B"/>
        <path d="M370.599 395.593C366.487 388.404 369.571 377.278 369.571 377.278L356.891 379.845L344.211 377.278C344.211 377.278 345.753 382.584 345.239 388.404C349.694 393.539 359.976 403.124 370.599 395.593Z"
              fill="url(#paint2_linear)"/>
        <path d="M368.797 381.286C366.022 382.957 362.515 384.505 358.59 385.692C353.666 387.18 348.975 387.832 345.292 387.691C345.629 382.158 344.211 377.278 344.211 377.278L356.891 379.845L369.571 377.278C369.571 377.278 369.124 378.891 368.797 381.286Z"
              fill="url(#paint3_linear)" style="mix-blend-mode:multiply"/>
        <path d="M325.876 405.692C333.244 412.196 347.809 426.403 357.062 426.403C366.316 426.403 382.766 412.881 390.134 406.376C386.535 405.007 375.569 400.728 372.998 398.503C372.142 397.647 371.285 396.62 370.771 395.593C360.147 403.124 349.866 393.539 345.41 388.232C345.068 391.998 344.04 395.764 341.126 398.331C338.213 400.728 329.303 404.322 325.876 405.692Z"
              fill="url(#paint4_linear)"/>
        <path d="M391.776 338.422C390.576 336.197 388.692 335.855 387.492 336.197C387.492 336.197 384.065 325.242 381.666 317.197C373.612 313.431 366.073 310.179 356.991 309.495V309.323C355.62 309.323 353.221 309.323 351.85 309.323C346.196 309.495 340.541 309.666 335.058 310.693C333.687 311.035 332.316 311.377 330.945 311.377C329.232 320.449 326.319 336.368 325.119 336.197H324.948C324.776 336.197 324.776 336.197 324.605 336.026C323.406 335.683 322.035 336.026 320.835 338.08C318.779 341.846 320.835 349.377 323.577 351.602C324.948 352.629 326.147 353.485 327.004 353.999C328.375 360.845 330.774 367.35 334.372 371.287C343.797 381.386 352.536 383.611 354.935 383.953C355.106 383.953 355.449 383.953 355.62 383.953C355.62 383.953 355.792 383.953 355.963 383.953C357.676 383.782 367.101 382.07 377.211 371.116C380.809 367.35 383.38 364.611 384.922 354.512C385.95 353.999 386.978 353.143 388.692 351.773C391.776 349.719 393.832 342.188 391.776 338.422Z"
              fill="url(#paint5_linear)"/>
        <path d="M356.736 348.052C356.736 348.052 356.868 351.908 355.825 353.177C354.782 354.446 352.803 355.675 352.64 356.623C352.449 357.391 353.277 358.74 354.722 359.07C356.167 359.4 356.402 359.918 356.402 359.918C356.402 359.918 353.735 360.7 352.067 358.927C350.399 357.154 351.661 355.298 352.883 354.186C354.105 353.074 354.654 352.62 355.176 351.985C355.849 351.327 356.736 348.052 356.736 348.052Z"
              fill="#D87C60"/>
        <path d="M367.066 365.052H346.364C345.689 365.052 345.212 365.707 345.483 366.326C346.943 369.661 350.524 374.552 356.5 374.552C362.451 374.552 366.284 369.701 367.929 366.367C368.237 365.743 367.762 365.052 367.066 365.052Z"
              fill="#D87C60"/>
        <path fill-rule="evenodd" clip-rule="evenodd"
              d="M366.976 368.052H346.367C346.015 367.454 345.721 366.87 345.484 366.326C345.213 365.707 345.689 365.052 346.365 365.052H367.066C367.762 365.052 368.238 365.743 367.93 366.367C367.667 366.899 367.349 367.469 366.976 368.052Z"
              fill="white"/>
        <path d="M376.598 296.999C402.129 300.251 396.132 331.404 391.163 336.882L387.5 343.052C385.667 339.885 381.9 331.152 381.5 321.552C377.667 324.052 366.2 329.052 351 329.052C332 329.052 326.792 332.197 325 341.052C320.545 331.124 317.481 311.035 328.447 299.738C343.526 283.99 366.316 280.225 376.598 296.999Z"
              fill="#402B2B"/>
        <path d="M325.019 340.99L325.876 348.35C325.876 348.35 323.305 346.981 322.791 343.557C322.62 341.503 323.477 340.134 325.019 340.99Z"
              fill="#ED8A40"/>
        <path d="M387.219 340.99L386.362 348.35C386.362 348.35 388.933 346.981 389.447 343.557C389.618 341.503 388.933 340.134 387.219 340.99Z"
              fill="#ED8A40"/>
        <path d="M373.685 349.313C373.685 350.853 372.486 352.223 370.772 352.223C369.23 352.223 367.859 351.024 367.859 349.313C367.859 347.772 369.059 346.403 370.772 346.403C372.486 346.403 373.685 347.772 373.685 349.313Z"
              fill="#402B2B"/>
        <path d="M343.184 352.223C344.792 352.223 346.097 350.92 346.097 349.313C346.097 347.706 344.792 346.403 343.184 346.403C341.575 346.403 340.271 347.706 340.271 349.313C340.271 350.92 341.575 352.223 343.184 352.223Z"
              fill="#402B2B"/>
        <path d="M335.541 343.913C336.79 342.55 340.446 339.825 345.078 339.825" stroke="#402B2B" stroke-width="2"/>
        <path d="M368.58 339.942C370.427 339.862 374.939 340.52 378.215 343.796" stroke="#402B2B" stroke-width="2"/>
        <path d="M418.065 444.547C418.75 426.061 413.096 415.106 404.528 410.485C395.96 405.863 375.741 400.043 375.055 399.872L356.72 414.422L339.242 399.872C338.557 400.043 317.823 405.863 309.427 410.485C300.859 415.106 295.204 426.061 295.89 444.547C296.404 459.439 295.375 482.889 295.547 500.006H418.579C418.579 482.889 417.551 459.439 418.065 444.547Z"
              fill="url(#paint6_linear)"/>
        <path d="M366.83 406.206L362.032 403.98L356.548 414.079L351.065 403.98L346.096 406.206L353.293 417.845V500.006H359.975V417.332L366.83 406.206Z"
              fill="#EE4D47" fill-opacity="0.29" style="mix-blend-mode:multiply"/>
        <path d="M345.239 388.233C345.068 393.196 352.094 406.034 352.094 406.034L339.927 417.845L335.986 400.728C335.986 400.728 339.927 390.287 345.239 388.233Z"
              fill="white"/>
        <path d="M368.543 388.233C368.714 393.196 360.832 406.205 360.832 406.205L373.684 417.845L377.625 400.557C377.625 400.557 373.855 390.287 368.543 388.233Z"
              fill="white"/>
        <path d="M358.607 420.755C358.607 421.782 357.75 422.638 356.722 422.638C355.694 422.638 354.837 421.782 354.837 420.755C354.837 419.728 355.694 418.872 356.722 418.872C357.75 418.872 358.607 419.728 358.607 420.755Z"
              fill="white"/>
        <path d="M358.606 438.214C358.606 439.241 357.749 440.097 356.721 440.097C355.693 440.097 354.836 439.241 354.836 438.214C354.836 437.187 355.693 436.331 356.721 436.331C357.749 436.331 358.606 437.016 358.606 438.214Z"
              fill="white"/>
        <path d="M358.606 455.331C358.606 456.358 357.749 457.214 356.721 457.214C355.693 457.214 354.836 456.358 354.836 455.331C354.836 454.304 355.693 453.448 356.721 453.448C357.749 453.448 358.606 454.304 358.606 455.331Z"
              fill="white"/>
        <path d="M358.606 474.331C358.606 475.358 357.749 476.214 356.721 476.214C355.693 476.214 354.836 475.358 354.836 474.331C354.836 473.304 355.693 472.448 356.721 472.448C357.749 472.448 358.606 473.304 358.606 474.331Z"
              fill="white"/>
        <path d="M298.631 415.62C298.631 415.62 280.467 464.403 279.097 472.448C277.897 480.493 288.178 499.15 292.976 499.835C300.002 500.862 305.656 498.808 312.682 486.826C319.536 474.844 318.337 423.665 318.337 423.665L298.631 415.62Z"
              fill="url(#paint7_linear)"/>
        <path d="M318.508 418.872C318.508 418.872 317.308 477.754 314.738 485.115C310.625 496.925 300.173 500.177 300.173 500.177H311.825C311.825 500.177 320.907 494.187 321.763 476.214C322.278 465.43 320.393 431.025 319.365 419.557C319.022 416.476 318.508 418.872 318.508 418.872Z"
              fill="#EE4D47" fill-opacity="0.29" style="mix-blend-mode:multiply"/>
        <path d="M322.535 413.315L302.834 405.365L298.726 415.522L318.427 423.473L322.535 413.315Z" fill="white"/>
        <path d="M396.989 427.259C396.989 427.259 389.963 460.637 389.449 474.331C388.935 488.024 389.449 499.835 389.449 499.835L394.418 500.177C394.418 500.177 395.618 440.268 396.989 427.259Z"
              fill="#EE4D47" fill-opacity="0.29" style="mix-blend-mode:multiply"/>
        <path d="M337.356 381.043C327.931 381.043 324.847 376.422 322.962 369.404C322.105 365.638 321.763 355.539 321.763 355.197H324.504C324.504 355.368 324.847 365.467 325.704 368.89C327.417 375.566 329.988 378.989 339.241 378.305L339.412 381.043C338.727 381.043 338.041 381.043 337.356 381.043Z"
              fill="white"/>
        <path d="M356.72 287.927C349.18 287.243 331.873 287.756 323.991 302.819C323.991 302.819 326.047 306.413 328.446 304.017C337.014 296.314 349.009 296.143 356.377 296.143C363.917 296.143 376.426 296.143 384.822 304.017C387.392 306.242 389.277 302.819 389.277 302.819C381.566 287.756 364.259 287.243 356.72 287.927Z"
              fill="white"/>
        <path d="M397.33 339.62C397.33 339.62 396.988 329.179 396.816 326.269C396.474 320.621 395.617 311.377 393.732 306.413C387.563 289.468 367.515 286.215 357.062 286.215C346.438 286.215 326.047 289.468 319.878 306.242C318.165 311.035 317.308 319.593 316.794 325.413C316.623 328.837 316.451 339.449 316.451 339.449H319.364C319.364 339.449 319.364 328.837 319.707 325.413C320.05 320.963 320.906 314.458 323.134 308.296C328.275 293.747 347.295 292.206 356.548 292.206C365.973 292.206 385.336 293.747 390.476 308.296C392.875 315.143 393.732 322.161 394.075 326.611C394.246 329.521 394.417 339.62 394.417 339.62H397.33V339.62Z"
              fill="url(#paint8_linear)"/>
        <path d="M320.05 337.566H316.28V353.656H320.05V337.566Z" fill="white"/>
        <path d="M326.733 356.737H322.449C320.393 356.737 318.68 355.026 318.68 352.972V338.251C318.68 336.197 320.393 334.485 322.449 334.485H326.733C327.247 334.485 327.59 334.828 327.59 335.341V355.71C327.59 356.224 327.247 356.737 326.733 356.737Z"
              fill="url(#paint9_linear)"/>
        <path d="M314.738 355.026H314.567C313.71 355.026 313.024 354.341 313.024 353.485V337.395C313.024 336.539 313.71 335.855 314.567 335.855H314.738C315.595 335.855 316.28 336.539 316.28 337.395V353.485C316.28 354.341 315.595 355.026 314.738 355.026Z"
              fill="url(#paint10_linear)"/>
        <path d="M393.177 353.934H396.947V337.844H393.177V353.934Z" fill="white"/>
        <path d="M386.707 357.08H390.991C393.047 357.08 394.76 355.368 394.76 353.314V338.593C394.76 336.539 393.047 334.828 390.991 334.828H386.707C386.193 334.828 385.85 335.17 385.85 335.683V356.053C385.679 356.566 386.193 357.08 386.707 357.08Z"
              fill="url(#paint11_linear)"/>
        <path d="M398.53 355.368H398.702C399.559 355.368 400.244 354.683 400.244 353.827V337.737C400.244 336.882 399.559 336.197 398.702 336.197H398.53C397.674 336.197 396.988 336.882 396.988 337.737V353.827C396.988 354.683 397.674 355.368 398.53 355.368Z"
              fill="url(#paint12_linear)"/>
        <path d="M347.467 379.332C347.467 381.043 345.411 382.584 342.669 382.584C340.099 382.584 337.871 381.215 337.871 379.332C337.871 377.449 339.927 376.079 342.669 376.079C345.239 376.079 347.467 377.449 347.467 379.332Z"
              fill="url(#paint13_linear)"/>
        <path fill-rule="evenodd" clip-rule="evenodd"
              d="M311.654 368.377L311.655 368.377C313.249 366.884 315.074 365.855 316.828 364.985C319.981 362.945 323.657 360.625 325.02 359.99C327.762 358.62 329.475 361.017 325.534 364.44C324.679 365.183 323.686 365.974 322.657 366.758C324.797 365.939 326.691 365.234 327.59 364.954C330.503 364.098 331.874 366.837 327.247 369.404C325.365 370.448 323.002 371.578 320.86 372.55L321.593 374.882C321.593 374.882 323.65 372.999 324.335 372.485C328.619 369.575 330.846 371.972 328.962 374.539C326.905 377.107 323.821 384.467 324.849 389.602C325.534 393.025 325.02 397.818 324.164 401.584C323.307 405.178 317.995 415.791 317.995 415.791L304.287 410.998C304.287 410.998 307.371 407.746 306.857 399.872C306.705 397.291 305.677 394.576 304.654 391.875C303.371 388.485 302.096 385.119 302.573 382.071C303.43 377.278 310.455 369.576 311.655 368.377L311.654 368.377Z"
              fill="url(#paint14_linear)"/>
        <path opacity="0.3"
              d="M323.992 388.917C324.335 384.638 323.992 383.782 323.649 381.728C323.306 379.332 323.821 376.251 322.792 374.026C321.593 371.629 319.708 370.26 316.452 370.945C312.168 371.972 310.455 374.197 310.455 374.197C310.455 374.197 313.882 372.827 315.596 372.314C318.166 371.629 320.736 371.8 321.764 374.881C322.278 376.764 322.621 379.332 322.964 381.215C323.135 382.584 324.163 388.575 323.306 388.746C322.45 388.746 320.565 388.233 319.708 385.152C319.537 385.836 319.365 390.458 318.851 390.458C315.767 390.116 315.424 387.719 315.253 385.152C315.253 383.953 315.081 382.242 314.739 380.017C313.539 381.899 310.626 383.611 309.427 384.467C310.798 385.665 313.368 388.575 314.396 389.773C316.281 391.998 317.994 395.422 318.337 399.016C322.964 394.566 320.393 389.944 320.222 388.404C321.422 389.773 323.821 390.8 323.992 388.917Z"
              fill="#EB5046"/>
        <path d="M518.309 388.917C518.309 386.35 516.252 384.467 513.511 384.467H386.88C384.31 384.467 382.082 386.521 382.082 388.917V467.655H518.137V388.917H518.309Z"
              fill="url(#paint15_linear)"/>
        <path d="M387.051 482.547H513.682C516.252 482.547 518.48 480.493 518.48 478.097V467.826H382.424V478.097C382.253 480.493 384.481 482.547 387.051 482.547Z"
              fill="#CA3F3A"/>
        <path d="M470.159 480.664H436.23V496.754H470.159V480.664Z" fill="#CA3F3A"/>
        <path d="M474.27 480.664H440.342V496.754H474.27V480.664Z" fill="url(#paint16_linear)"/>
        <path d="M468.616 495.214H426.634V499.835H468.616V495.214Z" fill="url(#paint17_linear)"/>
        <path d="M482.324 495.214H440.342V499.835H482.324V495.214Z" fill="url(#paint18_linear)"/>
        <path d="M525.334 388.917C525.334 386.35 523.278 384.467 520.537 384.467H394.077C391.507 384.467 389.279 386.521 389.279 388.917V467.655H525.334V388.917Z"
              fill="url(#paint19_linear)"/>
        <path d="M394.077 482.547H520.708C523.278 482.547 525.506 480.493 525.506 478.097V467.826H389.45V478.097C389.279 480.493 391.335 482.547 394.077 482.547Z"
              fill="url(#paint20_linear)"/>
        <path opacity="0.2"
              d="M469.644 418.872C469.644 425.719 464.16 431.196 457.306 431.196C450.452 431.196 444.969 425.719 444.969 418.872C444.969 412.025 450.452 406.548 457.306 406.548C464.16 406.548 469.644 412.025 469.644 418.872Z"
              fill="white"/>
        <path d="M354.664 495.214H325.362V499.664H354.664V495.214Z" fill="url(#paint21_linear)"/>
        <path d="M403.329 495.214H341.812V499.664H403.329V495.214Z" fill="url(#paint22_linear)"/>
        <g clip-path="url(#clip0)">
            <path d="M594 466.023H514V499.954H594V466.023Z" fill="#FCDDD4"/>
            <path fill-rule="evenodd" clip-rule="evenodd"
                  d="M554.445 457.177V457.254C555.079 455.485 556.35 452.669 558.488 448.469C562.73 440.428 567.465 434.249 567.465 434.249C567.465 434.249 565.393 441.114 561.152 449.155C557.401 456.353 555.347 459.256 554.445 459.696V460.107C555.532 458.677 557.924 456.227 562.138 452.392C569.142 446.115 576.047 441.604 576.047 441.604C576.047 441.604 571.608 447.39 564.604 453.765C560.497 457.451 557.775 459.662 556.076 460.794C557.806 459.725 560.496 458.259 564.407 456.314C573.088 451.999 580.979 449.352 580.979 449.352C580.979 449.352 574.864 453.765 566.183 458.079C559.572 461.44 555.993 462.867 554.445 463.14V463.435C555.837 462.665 559.398 461.428 566.183 459.55C575.751 456.903 584.136 455.726 584.136 455.726C584.136 455.726 576.836 458.962 567.268 461.61C564.148 462.473 561.658 463.107 559.708 463.549C561.683 463.221 564.235 462.867 567.465 462.493C577.625 461.218 586.108 461.316 586.108 461.316C586.108 461.316 578.118 463.473 567.958 464.65C559.778 465.676 555.754 465.813 554.445 465.52V465.729H553.458V465.588C553.276 465.641 553.022 465.685 552.668 465.729H549.808C547.638 465.631 544.382 465.434 539.845 464.846C529.684 463.571 521.694 461.512 521.694 461.512C521.694 461.512 530.178 461.414 540.338 462.689C543.391 463.042 545.838 463.369 547.765 463.67C545.867 463.232 543.481 462.621 540.535 461.806C530.868 459.158 523.667 455.922 523.667 455.922C523.667 455.922 532.052 457.099 541.62 459.747C548.574 461.671 552.141 462.922 553.458 463.688V463.341C551.966 463.091 548.377 461.634 541.621 458.276C532.94 453.961 526.824 449.548 526.824 449.548C526.824 449.548 534.716 452.196 543.396 456.51C547.063 458.333 549.656 459.736 551.391 460.785C549.663 459.599 547.017 457.436 543.199 453.961C536.195 447.586 531.756 441.8 531.756 441.8C531.756 441.8 538.661 446.213 545.665 452.588C548.675 455.328 550.756 457.361 552.096 458.82C550.945 457.331 549.158 454.39 546.552 449.45C542.311 441.408 540.239 434.544 540.239 434.544C540.239 434.544 545.073 440.722 549.216 448.763C551.606 453.403 552.913 456.377 553.458 458.102V457.179C552.928 455.962 552.57 452.445 552.57 445.429C552.57 436.407 553.951 429.052 553.951 429.052C553.951 429.052 555.332 436.407 555.332 445.429C555.332 452.441 554.974 455.958 554.445 457.177ZM553.458 460.05C553.312 460.038 553.121 459.928 552.879 459.706C553.106 459.976 553.298 460.219 553.458 460.436V460.05ZM553.458 461.91C553.217 461.847 552.905 461.712 552.515 461.493C552.893 461.744 553.206 461.967 553.458 462.165V461.91ZM554.445 461.892C554.716 461.686 555.049 461.452 555.45 461.191C555.037 461.437 554.704 461.598 554.445 461.683V461.892ZM553.458 464.57C553.14 464.592 552.692 464.57 552.096 464.497C552.727 464.659 553.173 464.809 553.458 464.947V464.57ZM554.445 464.791C554.815 464.62 555.403 464.432 556.246 464.228C555.443 464.348 554.851 464.394 554.445 464.379V464.791Z"
                  fill="#F37753"/>
            <path d="M548.624 465.729H530.178C533.039 465.533 536.491 465.434 540.141 465.434C543.692 465.434 546.553 465.533 548.624 465.729Z"
                  fill="#F37753"/>
            <path d="M559.179 465.729H577.625C574.765 465.533 571.312 465.336 567.662 465.434C564.012 465.533 561.25 465.631 559.179 465.729Z"
                  fill="#F37753"/>
        </g>
        <path d="M427 304.052C427 293.006 435.954 284.052 447 284.052H559.619C570.664 284.052 579.619 293.006 579.619 304.052V330.665C579.619 341.71 570.664 350.665 559.619 350.665H427V304.052Z"
              fill="#F69477"/>
        <circle opacity="0.5" cx="461.571" cy="317.78" r="5.05919" fill="white"/>
        <circle opacity="0.5" cx="482.651" cy="317.78" r="5.05919" fill="white"/>
        <circle opacity="0.5" cx="503.731" cy="317.78" r="5.05919" fill="white"/>
        <circle opacity="0.5" cx="524.811" cy="317.78" r="5.05919" fill="white"/>
        <circle opacity="0.5" cx="545.891" cy="317.78" r="5.05919" fill="white"/>
    </g>
    <defs>
        <filter id="filter0_d" x="65.002" y="94.652" width="591.295" height="507.457" filterUnits="userSpaceOnUse"
                color-interpolation-filters="sRGB">
            <feFlood flood-opacity="0" result="BackgroundImageFix"/>
            <feColorMatrix in="SourceAlpha" type="matrix" values="0 0 0 0 0 0 0 0 0 0 0 0 0 0 0 0 0 0 127 0"/>
            <feOffset dy="4"/>
            <feGaussianBlur stdDeviation="2"/>
            <feColorMatrix type="matrix" values="0 0 0 0 0 0 0 0 0 0 0 0 0 0 0 0 0 0 0.25 0"/>
            <feBlend mode="normal" in2="BackgroundImageFix" result="effect1_dropShadow"/>
            <feBlend mode="normal" in="SourceGraphic" in2="effect1_dropShadow" result="shape"/>
        </filter>
        <linearGradient id="paint0_linear" x1="320.596" y1="181.04" x2="239.598" y2="335.463"
                        gradientUnits="userSpaceOnUse">
            <stop stop-color="#F37753"/>
            <stop offset="1" stop-color="white" stop-opacity="0"/>
        </linearGradient>
        <linearGradient id="paint1_linear" x1="223.522" y1="149.035" x2="271.127" y2="475.013"
                        gradientUnits="userSpaceOnUse">
            <stop stop-color="#F7A58D"/>
            <stop offset="1" stop-color="#F58A6B"/>
        </linearGradient>
        <linearGradient id="paint2_linear" x1="371.788" y1="387.549" x2="368.733" y2="353.763"
                        gradientUnits="userSpaceOnUse">
            <stop stop-color="#FFB3B6"/>
            <stop offset="1" stop-color="#FFC8C1"/>
        </linearGradient>
        <linearGradient id="paint3_linear" x1="344.38" y1="383.589" x2="373.114" y2="393.937"
                        gradientUnits="userSpaceOnUse">
            <stop stop-color="#FFB3B6" stop-opacity="0.31"/>
            <stop offset="1" stop-color="#FFC8C1"/>
        </linearGradient>
        <linearGradient id="paint4_linear" x1="397.363" y1="441.461" x2="391.234" y2="378.26"
                        gradientUnits="userSpaceOnUse">
            <stop stop-color="#FFB3B6"/>
            <stop offset="1" stop-color="white"/>
        </linearGradient>
        <linearGradient id="paint5_linear" x1="395.873" y1="374.908" x2="389.989" y2="324.279"
                        gradientUnits="userSpaceOnUse">
            <stop stop-color="#FFB3B6"/>
            <stop offset="1" stop-color="#FFC8C1"/>
        </linearGradient>
        <linearGradient id="paint6_linear" x1="357.053" y1="376.694" x2="357.053" y2="502.748"
                        gradientUnits="userSpaceOnUse">
            <stop stop-color="#F4A984"/>
            <stop offset="1" stop-color="#EE4D47"/>
        </linearGradient>
        <linearGradient id="paint7_linear" x1="298.709" y1="396.072" x2="298.709" y2="502.379"
                        gradientUnits="userSpaceOnUse">
            <stop stop-color="#F4A984"/>
            <stop offset="1" stop-color="#EE4D47"/>
        </linearGradient>
        <linearGradient id="paint8_linear" x1="356.891" y1="273.854" x2="356.891" y2="341.083"
                        gradientUnits="userSpaceOnUse">
            <stop stop-color="#F4A984"/>
            <stop offset="1" stop-color="#EE4D47"/>
        </linearGradient>
        <linearGradient id="paint9_linear" x1="323.135" y1="329.334" x2="323.135" y2="357.347"
                        gradientUnits="userSpaceOnUse">
            <stop stop-color="#F4A984"/>
            <stop offset="1" stop-color="#EE4D47"/>
        </linearGradient>
        <linearGradient id="paint10_linear" x1="314.652" y1="331.417" x2="314.652" y2="355.551"
                        gradientUnits="userSpaceOnUse">
            <stop stop-color="#F4A984"/>
            <stop offset="1" stop-color="#EE4D47"/>
        </linearGradient>
        <linearGradient id="paint11_linear" x1="390.288" y1="329.677" x2="390.288" y2="357.689"
                        gradientUnits="userSpaceOnUse">
            <stop stop-color="#F4A984"/>
            <stop offset="1" stop-color="#EE4D47"/>
        </linearGradient>
        <linearGradient id="paint12_linear" x1="398.616" y1="331.759" x2="398.616" y2="355.893"
                        gradientUnits="userSpaceOnUse">
            <stop stop-color="#F4A984"/>
            <stop offset="1" stop-color="#EE4D47"/>
        </linearGradient>
        <linearGradient id="paint13_linear" x1="342.669" y1="374.574" x2="342.669" y2="382.762"
                        gradientUnits="userSpaceOnUse">
            <stop stop-color="#F4A984"/>
            <stop offset="1" stop-color="#EE4D47"/>
        </linearGradient>
        <linearGradient id="paint14_linear" x1="316" y1="413.552" x2="338.5" y2="329.552"
                        gradientUnits="userSpaceOnUse">
            <stop stop-color="#FFB3B6"/>
            <stop offset="0.239165" stop-color="#FFC5C7"/>
            <stop offset="1" stop-color="white"/>
        </linearGradient>
        <linearGradient id="paint15_linear" x1="431.105" y1="635.316" x2="431.105" y2="150.243"
                        gradientUnits="userSpaceOnUse">
            <stop stop-color="#FFEDBA"/>
            <stop offset="0.423008" stop-color="#F16D5E"/>
            <stop offset="0.651925" stop-color="#EE4D47"/>
        </linearGradient>
        <linearGradient id="paint16_linear" x1="452.551" y1="529.182" x2="452.551" y2="435.361"
                        gradientUnits="userSpaceOnUse">
            <stop stop-color="#FFEDBA"/>
            <stop offset="1" stop-color="#EE4D47"/>
        </linearGradient>
        <linearGradient id="paint17_linear" x1="441.741" y1="517.325" x2="441.741" y2="490.824"
                        gradientUnits="userSpaceOnUse">
            <stop stop-color="#FFEDBA"/>
            <stop offset="1" stop-color="#EE4D47"/>
        </linearGradient>
        <linearGradient id="paint18_linear" x1="455.449" y1="509.15" x2="455.449" y2="482.201"
                        gradientUnits="userSpaceOnUse">
            <stop stop-color="#FFEDBA"/>
            <stop offset="1" stop-color="#EE4D47"/>
        </linearGradient>
        <linearGradient id="paint19_linear" x1="438.24" y1="522.093" x2="438.24" y2="305.46"
                        gradientUnits="userSpaceOnUse">
            <stop stop-color="#FFEDBA"/>
            <stop offset="1" stop-color="#EE4D47"/>
        </linearGradient>
        <linearGradient id="paint20_linear" x1="438.405" y1="512.215" x2="438.405" y2="426.379"
                        gradientUnits="userSpaceOnUse">
            <stop stop-color="#FFEDBA"/>
            <stop offset="1" stop-color="#EE4D47"/>
        </linearGradient>
        <linearGradient id="paint21_linear" x1="335.907" y1="516.506" x2="335.907" y2="490.987"
                        gradientUnits="userSpaceOnUse">
            <stop stop-color="#FFEDBA"/>
            <stop offset="1" stop-color="#EE4D47"/>
        </linearGradient>
        <linearGradient id="paint22_linear" x1="363.95" y1="495.184" x2="363.95" y2="475.769"
                        gradientUnits="userSpaceOnUse">
            <stop stop-color="#FFEDBA"/>
            <stop offset="1" stop-color="#EE4D47"/>
        </linearGradient>
        <clipPath id="clip0">
            <rect width="80" height="71" fill="white" transform="translate(514 429.052)"/>
        </clipPath>
    </defs>
</svg>
